<?xml version="1.0" encoding="UTF-8" standalone="no"?>
<!-- Created with Inkscape (http://www.inkscape.org/) -->

<svg
   width="64mm"
   height="64mm"
   viewBox="0 0 64 64"
   version="1.1"
   id="svg1"
   inkscape:version="1.4 (e7c3feb1, 2024-10-09)"
   sodipodi:docname="normalization_layer.svg"
   xmlns:inkscape="http://www.inkscape.org/namespaces/inkscape"
   xmlns:sodipodi="http://sodipodi.sourceforge.net/DTD/sodipodi-0.dtd"
   xmlns="http://www.w3.org/2000/svg"
   xmlns:svg="http://www.w3.org/2000/svg">
  <sodipodi:namedview
     id="namedview1"
     pagecolor="#ffffff"
     bordercolor="#000000"
     borderopacity="0.25"
     inkscape:showpageshadow="2"
     inkscape:pageopacity="0.0"
     inkscape:pagecheckerboard="0"
     inkscape:deskcolor="#d1d1d1"
     inkscape:document-units="mm"
     inkscape:zoom="1.4173462"
     inkscape:cx="-9.5248427"
     inkscape:cy="109.71208"
     inkscape:window-width="1728"
     inkscape:window-height="972"
     inkscape:window-x="0"
     inkscape:window-y="38"
     inkscape:window-maximized="0"
     inkscape:current-layer="layer1"
     showgrid="false" />
  <defs
     id="defs1">
    <linearGradient
       id="swatch8"
       inkscape:swatch="solid">
      <stop
         style="stop-color:#000000;stop-opacity:1;"
         offset="0"
         id="stop8" />
    </linearGradient>
    <filter
       style="color-interpolation-filters:sRGB;"
       inkscape:label="Drop Shadow"
       id="filter30"
       x="-0.4131175"
       y="-0.4131175"
       width="1.6577377"
       height="1.6577377">
      <feFlood
         result="flood"
         flood-opacity="0.53907815631262523"
         flood-color="rgb(0,0,0)"
         id="feFlood29" />
      <feGaussianBlur
         result="blur"
         in="SourceGraphic"
         stdDeviation="1.6949153"
         id="feGaussianBlur29" />
      <feOffset
         result="offset"
         dx="-3.4907597535934309"
         dy="-3.4907597535934309"
         id="feOffset29" />
      <feComposite
         result="comp1"
         operator="in"
         in="flood"
         in2="offset"
         id="feComposite29" />
      <feComposite
         result="comp2"
         operator="over"
         in="SourceGraphic"
         in2="comp1"
         id="feComposite30" />
    </filter>
  </defs>
  <g
     inkscape:label="Layer 1"
     inkscape:groupmode="layer"
     id="layer1"
     transform="translate(-44.846265,-46.873708)">
    <path
       style="fill:none;stroke:#000000;stroke-width:2.50702;stroke-dasharray:none;stroke-opacity:1"
       d="m 11.7619,109.37771 c 0.1451,0 0.2902,0 0.4353,0 0.1451,0 0.2903,0 0.4354,0 0.1451,0 0.2902,0 0.4353,0 0.1451,0 0.2903,0 0.4354,0 0.1451,0 0.2902,0 0.4353,0 0.1451,0 0.2902,0 0.4354,0 0.1451,0 0.2902,0 0.4353,0 0.1451,0 0.2902,0 0.4354,0 0.1451,0 0.2902,0 0.4353,0 0.1451,0 0.2902,0 0.4354,0 0.1451,0 0.2902,0 0.4353,0 0.1451,0 0.2902,0 0.4353,0 0.1452,0 0.2903,0 0.4354,0 0.1451,0 0.2902,0 0.4353,0 0.1452,0 0.2903,0 0.4354,0 0.1451,0 0.2902,0 0.4353,0 0.1451,0 0.2903,0 0.4354,0 0.1451,0 0.2902,0 0.4353,0 0.1451,0 0.2903,0 0.4354,0 0.1451,0 0.2902,0 0.4353,0 0.1451,0 0.2903,0 0.4354,0 0.1451,0 0.2902,0 0.4353,0 0.1451,0 0.2902,0 0.4354,0 0.1451,0 0.2902,0 0.4353,0 0.1451,0 0.2902,0 0.4354,0 0.1451,0 0.2902,0 0.4353,0 0.1451,0 0.2902,0 0.4354,0 0.1451,0 0.2902,0 0.4353,0 0.1451,0 0.2902,0 0.4353,0 0.1452,0 0.2903,0 0.4354,0 0.1451,0 0.2902,0 0.4353,0 0.1452,0 0.2903,0 0.4354,0 0.1451,0 0.2902,0 0.4353,0 0.1451,0 0.2903,0 0.4354,0 0.1451,0 0.2902,0 0.4353,0 0.1451,0 0.2903,0 0.4354,0 0.1451,0 0.2902,0 0.4353,0 0.1451,0 0.2903,0 0.4354,0 0.1451,0 0.2902,0 0.4353,0 0.1451,0 0.2902,0 0.4354,0 0.1451,0 0.2902,0 0.4353,-0.002 0.1451,0 0.2902,0 0.4354,0 0.1451,0 0.2902,0 0.4353,0 0.1451,0 0.2902,0 0.4354,0 0.1451,0 0.2902,0 0.4353,0 0.1451,0 0.2902,-0.002 0.4353,-0.002 0.1452,0 0.2903,0 0.4354,0 0.1451,0 0.2902,0 0.4353,-0.002 0.1452,0 0.2903,0 0.4354,0 0.1451,0 0.2902,-0.002 0.4353,-0.002 0.1451,0 0.2903,0 0.4354,0 0.1451,-0.002 0.2902,-0.002 0.4353,-0.002 0.1451,-0.002 0.2903,-0.002 0.4354,-0.002 0.1451,-0.002 0.2902,-0.002 0.4353,-0.003 0.1451,0 0.2903,-0.002 0.4354,-0.002 0.1451,-0.002 0.2902,-0.002 0.4353,-0.003 0.1451,0 0.2902,-0.002 0.4354,-0.003 0.1451,0 0.2902,-0.002 0.4353,-0.003 0.1451,-0.002 0.2902,-0.003 0.4354,-0.005 0.1451,-0.002 0.2902,-0.003 0.4353,-0.005 0.1451,-0.002 0.2902,-0.003 0.4354,-0.005 0.1451,-0.003 0.2902,-0.005 0.4353,-0.006 0.1451,-0.003 0.2902,-0.006 0.4353,-0.008 0.1452,-0.003 0.2903,-0.006 0.4354,-0.009 0.1451,-0.003 0.2902,-0.006 0.4353,-0.009 0.1452,-0.003 0.2903,-0.008 0.4354,-0.011 0.1451,-0.005 0.2902,-0.009 0.4353,-0.0141 0.1451,-0.005 0.2903,-0.009 0.4354,-0.0141 0.1451,-0.005 0.2902,-0.011 0.4353,-0.0173 0.1451,-0.006 0.2903,-0.0126 0.4354,-0.0189 0.1451,-0.008 0.2902,-0.0141 0.4353,-0.022 0.1451,-0.008 0.2903,-0.0157 0.4354,-0.0251 0.1451,-0.009 0.2902,-0.0189 0.4353,-0.0283 0.1451,-0.009 0.2902,-0.0204 0.4354,-0.0314 0.1451,-0.011 0.2902,-0.0236 0.4353,-0.0361 0.1451,-0.0126 0.2902,-0.0267 0.4354,-0.0408 0.1451,-0.0141 0.2902,-0.0299 0.4353,-0.0456 0.1451,-0.0157 0.2902,-0.033 0.4354,-0.0503 0.1451,-0.0189 0.2902,-0.0377 0.4353,-0.0566 0.1451,-0.0204 0.2902,-0.0424 0.4353,-0.0644 0.1452,-0.022 0.2903,-0.0456 0.4354,-0.0707 0.1451,-0.0251 0.2902,-0.0519 0.4353,-0.0786 0.1452,-0.0283 0.2903,-0.0566 0.4354,-0.088 0.1451,-0.0299 0.2902,-0.0628 0.4353,-0.0974 0.1451,-0.033 0.2903,-0.0691 0.4354,-0.10685 0.1451,-0.0377 0.2902,-0.077 0.4353,-0.11784 0.1451,-0.0409 0.2903,-0.0849 0.4354,-0.13042 0.1451,-0.0456 0.2902,-0.0927 0.4353,-0.14299 0.1451,-0.0503 0.2903,-0.10213 0.4354,-0.15713 0.1451,-0.055 0.2902,-0.11156 0.4353,-0.17127 0.1451,-0.0597 0.2902,-0.12256 0.4354,-0.18855 0.1451,-0.0644 0.2902,-0.13356 0.4353,-0.20427 0.1451,-0.0707 0.2902,-0.14613 0.4354,-0.22312 0.1451,-0.077 0.2902,-0.15713 0.4353,-0.24041 0.1451,-0.0849 0.2902,-0.17127 0.4354,-0.26241 0.1451,-0.0911 0.2902,-0.18541 0.4353,-0.28283 0.1451,-0.0974 0.2902,-0.19955 0.4353,-0.30483 0.1452,-0.10684 0.2903,-0.21526 0.4354,-0.3284 0.1451,-0.1147 0.2902,-0.23255 0.4353,-0.35354 0.1452,-0.12256 0.2903,-0.24826 0.4354,-0.37868 0.1451,-0.13041 0.2902,-0.26554 0.4353,-0.40382 0.1451,-0.13984 0.2903,-0.2844 0.4354,-0.4321 0.1451,-0.14927 0.2902,-0.30169 0.4353,-0.46039 0.1451,-0.15713 0.2903,-0.32054 0.4354,-0.48867 0.1451,-0.16656 0.2902,-0.3394 0.4353,-0.51695 0.1451,-0.17756 0.2903,-0.35983 0.4354,-0.54838 0.1451,-0.18699 0.2902,-0.38025 0.4353,-0.57824 0.1451,-0.19798 0.2902,-0.40068 0.4354,-0.60809 0.1451,-0.20741 0.2902,-0.4211 0.4353,-0.63951 0.1451,-0.21841 0.2902,-0.441532 0.4354,-0.669369 0.1451,-0.229408 0.2902,-0.461958 0.4353,-0.700794 0.1451,-0.238836 0.2902,-0.482386 0.4354,-0.730649 0.1451,-0.248264 0.2902,-0.501241 0.4353,-0.760503 0.1451,-0.257692 0.2902,-0.520097 0.4353,-0.787216 0.1452,-0.26869 0.2903,-0.540523 0.4354,-0.81707 0.1451,-0.276546 0.2902,-0.557807 0.4353,-0.84221 0.1452,-0.285974 0.2903,-0.575091 0.4354,-0.868922 0.1451,-0.29226 0.2902,-0.590019 0.4353,-0.890921 0.1451,-0.300744 0.2903,-0.60526 0.4354,-0.912918 0.1451,-0.307658 0.2902,-0.618459 0.4353,-0.932245 0.1451,-0.313786 0.2903,-0.630401 0.4354,-0.94953 0.1451,-0.318971 0.2902,-0.640457 0.4353,-0.963985 0.1451,-0.323371 0.2903,-0.648942 0.4354,-0.97577 0.1451,-0.326985 0.2902,-0.655384 0.4353,-0.984726 0.1451,-0.329499 0.2902,-0.659784 0.4354,-0.99054 0.1451,-0.330756 0.2902,-0.661984 0.4353,-0.992897 0.1451,-0.33107 0.2902,-0.661827 0.4354,-0.991954 0.1451,-0.329971 0.2902,-0.659313 0.4353,-0.987083 0.1451,-0.327928 0.2902,-0.654442 0.4353,-0.978756 0.1452,-0.324471 0.2903,-0.646899 0.4354,-0.966656 0.1451,-0.319757 0.2902,-0.636686 0.4353,-0.950315 0.1452,-0.313786 0.2903,-0.623959 0.4354,-0.93036 0.1451,-0.306244 0.2902,-0.60856 0.4353,-0.906162 0.1452,-0.297602 0.2903,-0.59049 0.4354,-0.878035 0.1451,-0.287546 0.2902,-0.569907 0.4353,-0.846139 0.1451,-0.276233 0.2903,-0.546494 0.4354,-0.810156 0.1451,-0.263505 0.2902,-0.520568 0.4353,-0.770403 0.1451,-0.249677 0.2903,-0.492284 0.4354,-0.727035 0.1451,-0.234593 0.2902,-0.461487 0.4353,-0.680053 0.1451,-0.218566 0.2903,-0.428648 0.4354,-0.62993 0.1451,-0.201124 0.2902,-0.39345 0.4353,-0.576348 0.1451,-0.183055 0.2902,-0.356525 0.4354,-0.520254 0.1451,-0.163728 0.2902,-0.317557 0.4353,-0.461173 0.1451,-0.143615 0.2902,-0.277018 0.4354,-0.399892 0.1451,-0.122875 0.2902,-0.235065 0.4353,-0.33657 0.1451,-0.101348 0.2902,-0.191855 0.4353,-0.271205 0.1452,-0.07951 0.2903,-0.147858 0.4354,-0.204896 0.1451,-0.05704 0.2902,-0.102762 0.4353,-0.137016 0.1452,-0.03441 0.2903,-0.05735 0.4354,-0.06882 0.1451,-0.01147 0.2902,-0.01147 0.4353,0 0.1452,0.01147 0.2903,0.03441 0.4354,0.06882 0.1451,0.03425 0.2902,0.07998 0.4353,0.137016 0.1451,0.05704 0.2903,0.125389 0.4354,0.204896 0.1451,0.07935 0.2902,0.169857 0.4353,0.271205 0.1451,0.101505 0.2903,0.213695 0.4354,0.33657 0.1451,0.122874 0.2902,0.256277 0.4353,0.399892 0.1451,0.143616 0.2903,0.297445 0.4354,0.461173 0.1451,0.163729 0.2902,0.337199 0.4353,0.520254 0.1451,0.182898 0.2902,0.375224 0.4354,0.576348 0.1451,0.201282 0.2902,0.411364 0.4353,0.62993 0.1451,0.218566 0.2902,0.44546 0.4354,0.680053 0.1451,0.234751 0.2902,0.477358 0.4353,0.727035 0.1451,0.249835 0.2902,0.506898 0.4353,0.770403 0.1452,0.263662 0.2903,0.533923 0.4354,0.810156 0.1451,0.276232 0.2902,0.558593 0.4353,0.846139 0.1452,0.287545 0.2903,0.580433 0.4354,0.878035 0.1451,0.297602 0.2902,0.599918 0.4353,0.906162 0.1452,0.306244 0.2903,0.616574 0.4354,0.93036 0.1451,0.313629 0.2902,0.630715 0.4353,0.950315 0.1451,0.319757 0.2903,0.642185 0.4354,0.966656 0.1451,0.324314 0.2902,0.650828 0.4353,0.978756 0.1451,0.32777 0.2903,0.657112 0.4354,0.987083 0.1451,0.330127 0.2902,0.660884 0.4353,0.991954 0.1451,0.330913 0.2903,0.662141 0.4354,0.992897 0.1451,0.330756 0.2902,0.661041 0.4353,0.99054 0.1451,0.329342 0.2902,0.657741 0.4354,0.984726 0.1451,0.326828 0.2902,0.652399 0.4353,0.97577 0.1451,0.323528 0.2902,0.645014 0.4354,0.963985 0.1451,0.319129 0.2902,0.635744 0.4353,0.94953 0.1451,0.313786 0.2902,0.624587 0.4353,0.932245 0.1452,0.307658 0.2903,0.612174 0.4354,0.912918 0.1451,0.300902 0.2902,0.598661 0.4353,0.890921 0.1452,0.293831 0.2903,0.582948 0.4354,0.868922 0.1451,0.284403 0.2902,0.565664 0.4353,0.84221 0.1452,0.276547 0.2903,0.54838 0.4354,0.81707 0.1451,0.267119 0.2902,0.529524 0.4353,0.787216 0.1451,0.259262 0.2903,0.512239 0.4354,0.760503 0.1451,0.248263 0.2902,0.491813 0.4353,0.730649 0.1451,0.238836 0.2903,0.471386 0.4354,0.700794 0.1451,0.227837 0.2902,0.450959 0.4353,0.669369 0.1451,0.21841 0.2903,0.4321 0.4354,0.63951 0.1451,0.20741 0.2902,0.41011 0.4353,0.60809 0.1451,0.19799 0.2902,0.39125 0.4354,0.57824 0.1451,0.18855 0.2902,0.37082 0.4353,0.54838 0.1451,0.17755 0.2902,0.35039 0.4354,0.51695 0.1451,0.16813 0.2902,0.33154 0.4353,0.48867 0.1451,0.1587 0.2902,0.31112 0.4353,0.46039 0.1452,0.1477 0.2903,0.29226 0.4354,0.4321 0.1451,0.13828 0.2902,0.27341 0.4353,0.40382 0.1452,0.13042 0.2903,0.25612 0.4354,0.37868 0.1451,0.12099 0.2902,0.23884 0.4353,0.35354 0.1452,0.11314 0.2903,0.22156 0.4354,0.3284 0.1451,0.10528 0.2902,0.20741 0.435,0.30483 0.145,0.0974 0.291,0.1917 0.436,0.28283 0.145,0.0911 0.29,0.17756 0.435,0.26241 0.145,0.0833 0.29,0.16341 0.435,0.24041 0.145,0.077 0.291,0.15241 0.436,0.22312 0.145,0.0707 0.29,0.13984 0.435,0.20427 0.145,0.066 0.29,0.12884 0.435,0.18855 0.146,0.0597 0.291,0.11628 0.436,0.17127 0.145,0.055 0.29,0.10685 0.435,0.15713 0.145,0.0503 0.29,0.0974 0.435,0.14299 0.146,0.0456 0.291,0.0896 0.436,0.13042 0.145,0.0409 0.29,0.0801 0.435,0.11784 0.145,0.0377 0.29,0.0739 0.435,0.10685 0.146,0.0346 0.291,0.0676 0.436,0.0974 0.145,0.0314 0.29,0.0597 0.435,0.088 0.145,0.0267 0.29,0.0534 0.436,0.0786 0.145,0.0251 0.29,0.0487 0.435,0.0707 0.145,0.022 0.29,0.044 0.435,0.0644 0.145,0.0189 0.29,0.0377 0.436,0.0566 0.145,0.0173 0.29,0.0346 0.435,0.0503 0.145,0.0157 0.29,0.0314 0.435,0.0456 0.145,0.0141 0.291,0.0283 0.436,0.0408 0.145,0.0126 0.29,0.0252 0.435,0.0361 0.145,0.011 0.29,0.022 0.435,0.0314 0.145,0.009 0.291,0.0189 0.436,0.0283 0.145,0.009 0.29,0.0173 0.435,0.0251 0.145,0.008 0.29,0.0142 0.435,0.022 0.145,0.006 0.291,0.0126 0.436,0.0189 0.145,0.006 0.29,0.0126 0.435,0.0173 0.145,0.005 0.29,0.009 0.435,0.0141 0.146,0.005 0.291,0.009 0.436,0.0141 0.145,0.003 0.29,0.008 0.435,0.011 0.145,0.003 0.29,0.006 0.435,0.009 0.146,0.003 0.291,0.006 0.436,0.009 0.145,0.002 0.29,0.005 0.435,0.008 0.145,0.002 0.29,0.003 0.435,0.006 0.146,0.002 0.291,0.003 0.436,0.005 0.145,0.002 0.29,0.003 0.435,0.005 0.145,0.002 0.29,0.003 0.436,0.005 0.145,0.002 0.29,0.003 0.435,0.003 0.145,0.002 0.29,0.003 0.435,0.003 0.145,0.002 0.29,0.002 0.436,0.003 0.145,0 0.29,0.002 0.435,0.002 0.145,0.002 0.29,0.002 0.435,0.003 0.145,0 0.29,0 0.436,0.002 0.145,0 0.29,0 0.435,0.002 0.145,0 0.29,0 0.435,0 0.145,0 0.291,0.002 0.436,0.002 0.145,0 0.29,0 0.435,0 0.145,0.002 0.29,0.002 0.435,0.002 0.145,0 0.291,0 0.436,0 0.145,0 0.29,0.002 0.435,0.002 0.145,0 0.29,0 0.435,0 0.145,0 0.291,0 0.436,0 0.145,0 0.29,0 0.435,0 0.145,0 0.29,0 0.435,0 0.146,0.002 0.291,0.002 0.436,0.002 0.145,0 0.29,0 0.435,0 0.145,0 0.29,0 0.435,0 0.146,0 0.291,0 0.436,0 0.145,0 0.29,0 0.435,0 0.145,0 0.29,0 0.436,0 0.145,0 0.29,0 0.435,0 0.145,0 0.29,0 0.435,0 0.145,0 0.29,0 0.436,0 0.145,0 0.29,0 0.435,0 0.145,0 0.29,0 0.435,0 0.145,0 0.29,0 0.436,0 0.145,0 0.29,0 0.435,0 0.145,0 0.29,0 0.435,0 0.145,0 0.291,0 0.436,0 0.145,0 0.29,0 0.435,0 0.145,0 0.29,0 0.435,0 0.145,0 0.291,0 0.436,0 0.145,0 0.29,0 0.435,0 0.145,0 0.29,0 0.435,0 0.145,0 0.291,0 0.436,0 0.145,0 0.29,0 0.435,0 0.145,0 0.29,0 0.435,0 0.146,0 0.291,0 0.436,0 0.145,0 0.29,0 0.435,0 0.145,0 0.29,0 0.435,0 0.146,0 0.291,0 0.436,0 0.145,0 0.29,0 0.435,0 0.145,0 0.29,0 0.435,0 0.146,0 0.291,0 0.436,0 0.145,0 0.29,0 0.435,0 0.145,0 0.29,0 0.436,0 0.145,0 0.29,0 0.435,0 0.145,0 0.29,0 0.435,0 0.145,0 0.29,0 0.436,0 0.145,0 0.29,0 0.435,0 0.145,0 0.29,0 0.435,0 0.145,0 0.29,0 0.436,0 0.145,0 0.29,0 0.435,0 0.145,0 0.29,0 0.435,0 0.145,0 0.291,0 0.436,0"
       title="t (1/sqrt(2 * pi)) * exp(-pow(t, 2)/2)"
       id="path8" />
    <rect
       style="opacity:1;fill:none;stroke:#000000;stroke-width:1.97723;stroke-linecap:butt;stroke-linejoin:miter;stroke-dasharray:none;stroke-opacity:1"
       id="rect8"
       width="62.470177"
       height="62.1367"
       x="45.414841"
       y="47.928009" />
  </g>
</svg>
