<?xml version="1.0" encoding="UTF-8" standalone="no"?>
<!-- Created with Inkscape (http://www.inkscape.org/) -->

<svg
   width="64mm"
   height="64mm"
   viewBox="0 0 64 64"
   version="1.1"
   id="svg1"
   inkscape:version="1.4 (e7c3feb1, 2024-10-09)"
   sodipodi:docname="normalization.svg"
   xmlns:inkscape="http://www.inkscape.org/namespaces/inkscape"
   xmlns:sodipodi="http://sodipodi.sourceforge.net/DTD/sodipodi-0.dtd"
   xmlns="http://www.w3.org/2000/svg"
   xmlns:svg="http://www.w3.org/2000/svg">
  <sodipodi:namedview
     id="namedview1"
     pagecolor="#ffffff"
     bordercolor="#000000"
     borderopacity="0.25"
     inkscape:showpageshadow="2"
     inkscape:pageopacity="0.0"
     inkscape:pagecheckerboard="0"
     inkscape:deskcolor="#d1d1d1"
     inkscape:document-units="mm"
     inkscape:zoom="1.4173462"
     inkscape:cx="-9.5248427"
     inkscape:cy="109.71208"
     inkscape:window-width="1728"
     inkscape:window-height="972"
     inkscape:window-x="0"
     inkscape:window-y="38"
     inkscape:window-maximized="0"
     inkscape:current-layer="layer1"
     showgrid="false" />
  <defs
     id="defs1">
    <linearGradient
       id="swatch8"
       inkscape:swatch="solid">
      <stop
         style="stop-color:#000000;stop-opacity:1;"
         offset="0"
         id="stop8" />
    </linearGradient>
    <filter
       style="color-interpolation-filters:sRGB;"
       inkscape:label="Drop Shadow"
       id="filter30"
       x="-0.4131175"
       y="-0.4131175"
       width="1.6577377"
       height="1.6577377">
      <feFlood
         result="flood"
         flood-opacity="0.53907815631262523"
         flood-color="rgb(0,0,0)"
         id="feFlood29" />
      <feGaussianBlur
         result="blur"
         in="SourceGraphic"
         stdDeviation="1.6949153"
         id="feGaussianBlur29" />
      <feOffset
         result="offset"
         dx="-3.4907597535934309"
         dy="-3.4907597535934309"
         id="feOffset29" />
      <feComposite
         result="comp1"
         operator="in"
         in="flood"
         in2="offset"
         id="feComposite29" />
      <feComposite
         result="comp2"
         operator="over"
         in="SourceGraphic"
         in2="comp1"
         id="feComposite30" />
    </filter>
  </defs>
  <g
     inkscape:label="Layer 1"
     inkscape:groupmode="layer"
     id="layer1"
     transform="translate(-44.846265,-46.873708)">
    <path
       style="fill:none;stroke:#000000;stroke-width:2;stroke-dasharray:none;stroke-opacity:1"
       d="M 11.7619 109.949 C 11.907 109.949 12.0521 109.949 12.1972 109.949 C 12.3423 109.949 12.4875 109.949 12.6326 109.949 C 12.7777 109.949 12.9228 109.949 13.0679 109.949 C 13.213 109.949 13.3582 109.949 13.5033 109.949 C 13.6484 109.949 13.7935 109.949 13.9386 109.949 C 14.0837 109.949 14.2288 109.949 14.374 109.949 C 14.5191 109.949 14.6642 109.949 14.8093 109.949 C 14.9544 109.949 15.0995 109.949 15.2447 109.949 C 15.3898 109.949 15.5349 109.949 15.68 109.949 C 15.8251 109.949 15.9702 109.949 16.1154 109.949 C 16.2605 109.949 16.4056 109.949 16.5507 109.949 C 16.6958 109.949 16.8409 109.949 16.986 109.949 C 17.1312 109.949 17.2763 109.949 17.4214 109.949 C 17.5665 109.949 17.7116 109.949 17.8567 109.949 C 18.0019 109.949 18.147 109.949 18.2921 109.949 C 18.4372 109.949 18.5823 109.949 18.7274 109.949 C 18.8725 109.949 19.0177 109.949 19.1628 109.949 C 19.3079 109.949 19.453 109.949 19.5981 109.949 C 19.7432 109.949 19.8884 109.949 20.0335 109.949 C 20.1786 109.949 20.3237 109.949 20.4688 109.949 C 20.6139 109.949 20.7591 109.949 20.9042 109.949 C 21.0493 109.949 21.1944 109.949 21.3395 109.949 C 21.4846 109.949 21.6297 109.949 21.7749 109.949 C 21.92 109.949 22.0651 109.949 22.2102 109.949 C 22.3553 109.949 22.5004 109.949 22.6456 109.949 C 22.7907 109.949 22.9358 109.949 23.0809 109.949 C 23.226 109.949 23.3711 109.949 23.5163 109.949 C 23.6614 109.949 23.8065 109.949 23.9516 109.949 C 24.0967 109.949 24.2418 109.949 24.3869 109.949 C 24.5321 109.949 24.6772 109.949 24.8223 109.949 C 24.9674 109.949 25.1125 109.949 25.2576 109.949 C 25.4028 109.949 25.5479 109.949 25.693 109.949 C 25.8381 109.949 25.9832 109.949 26.1283 109.949 C 26.2734 109.949 26.4186 109.949 26.5637 109.949 C 26.7088 109.949 26.8539 109.949 26.999 109.949 C 27.1441 109.949 27.2893 109.949 27.4344 109.949 C 27.5795 109.949 27.7246 109.949 27.8697 109.949 C 28.0148 109.949 28.16 109.949 28.3051 109.949 C 28.4502 109.949 28.5953 109.949 28.7404 109.949 C 28.8855 109.949 29.0306 109.949 29.1758 109.949 C 29.3209 109.949 29.466 109.949 29.6111 109.948 C 29.7562 109.948 29.9013 109.948 30.0465 109.948 C 30.1916 109.948 30.3367 109.948 30.4818 109.948 C 30.6269 109.948 30.772 109.948 30.9172 109.948 C 31.0623 109.948 31.2074 109.948 31.3525 109.948 C 31.4976 109.948 31.6427 109.947 31.7878 109.947 C 31.933 109.947 32.0781 109.947 32.2232 109.947 C 32.3683 109.947 32.5134 109.947 32.6585 109.946 C 32.8037 109.946 32.9488 109.946 33.0939 109.946 C 33.239 109.946 33.3841 109.945 33.5292 109.945 C 33.6743 109.945 33.8195 109.945 33.9646 109.945 C 34.1097 109.944 34.2548 109.944 34.3999 109.944 C 34.545 109.943 34.6902 109.943 34.8353 109.943 C 34.9804 109.942 35.1255 109.942 35.2706 109.941 C 35.4157 109.941 35.5609 109.94 35.706 109.94 C 35.8511 109.939 35.9962 109.939 36.1413 109.938 C 36.2864 109.938 36.4315 109.937 36.5767 109.936 C 36.7218 109.936 36.8669 109.935 37.012 109.934 C 37.1571 109.933 37.3022 109.932 37.4474 109.931 C 37.5925 109.93 37.7376 109.929 37.8827 109.928 C 38.0278 109.927 38.1729 109.926 38.3181 109.925 C 38.4632 109.923 38.6083 109.922 38.7534 109.921 C 38.8985 109.919 39.0436 109.917 39.1887 109.916 C 39.3339 109.914 39.479 109.912 39.6241 109.91 C 39.7692 109.908 39.9143 109.906 40.0594 109.904 C 40.2046 109.902 40.3497 109.899 40.4948 109.897 C 40.6399 109.894 40.785 109.891 40.9301 109.888 C 41.0752 109.885 41.2204 109.882 41.3655 109.879 C 41.5106 109.876 41.6557 109.872 41.8008 109.868 C 41.9459 109.864 42.0911 109.86 42.2362 109.856 C 42.3813 109.851 42.5264 109.847 42.6715 109.842 C 42.8166 109.837 42.9618 109.832 43.1069 109.826 C 43.252 109.82 43.3971 109.814 43.5422 109.808 C 43.6873 109.802 43.8324 109.795 43.9776 109.788 C 44.1227 109.781 44.2678 109.773 44.4129 109.765 C 44.558 109.757 44.7031 109.748 44.8483 109.739 C 44.9934 109.73 45.1385 109.72 45.2836 109.71 C 45.4287 109.7 45.5738 109.689 45.719 109.678 C 45.8641 109.666 46.0092 109.654 46.1543 109.642 C 46.2994 109.629 46.4445 109.615 46.5896 109.601 C 46.7348 109.587 46.8799 109.572 47.025 109.556 C 47.1701 109.54 47.3152 109.523 47.4603 109.506 C 47.6055 109.488 47.7506 109.47 47.8957 109.45 C 48.0408 109.431 48.1859 109.41 48.331 109.388 C 48.4761 109.367 48.6213 109.344 48.7664 109.32 C 48.9115 109.296 49.0566 109.271 49.2017 109.245 C 49.3468 109.219 49.492 109.191 49.6371 109.162 C 49.7822 109.133 49.9273 109.103 50.0724 109.071 C 50.2175 109.039 50.3627 109.006 50.5078 108.971 C 50.6529 108.936 50.798 108.9 50.9431 108.862 C 51.0882 108.824 51.2333 108.784 51.3785 108.742 C 51.5236 108.701 51.6687 108.657 51.8138 108.612 C 51.9589 108.567 52.104 108.519 52.2492 108.47 C 52.3943 108.421 52.5394 108.37 52.6845 108.317 C 52.8296 108.263 52.9747 108.208 53.1199 108.15 C 53.265 108.092 53.4101 108.032 53.5552 107.97 C 53.7003 107.908 53.8454 107.843 53.9905 107.776 C 54.1357 107.708 54.2808 107.639 54.4259 107.567 C 54.571 107.494 54.7161 107.419 54.8612 107.342 C 55.0064 107.264 55.1515 107.184 55.2966 107.101 C 55.4417 107.018 55.5868 106.932 55.7319 106.844 C 55.877 106.755 56.0222 106.663 56.1673 106.569 C 56.3124 106.474 56.4575 106.377 56.6026 106.276 C 56.7477 106.176 56.8929 106.072 57.038 105.965 C 57.1831 105.859 57.3282 105.749 57.4733 105.636 C 57.6184 105.523 57.7636 105.407 57.9087 105.287 C 58.0538 105.168 58.1989 105.045 58.344 104.919 C 58.4891 104.793 58.6342 104.664 58.7794 104.532 C 58.9245 104.4 59.0696 104.264 59.2147 104.125 C 59.3598 103.986 59.5049 103.844 59.6501 103.699 C 59.7952 103.553 59.9403 103.405 60.0854 103.253 C 60.2305 103.101 60.3756 102.946 60.5208 102.788 C 60.6659 102.63 60.811 102.469 60.9561 102.304 C 61.1012 102.14 61.2463 101.973 61.3914 101.803 C 61.5366 101.632 61.6817 101.459 61.8268 101.283 C 61.9719 101.107 62.117 100.928 62.2621 100.747 C 62.4073 100.565 62.5524 100.381 62.6975 100.194 C 62.8426 100.008 62.9877 99.8185 63.1328 99.627 C 63.2779 99.4356 63.4231 99.2418 63.5682 99.046 C 63.7133 98.8502 63.8584 98.6524 64.0035 98.4527 C 64.1486 98.253 64.2938 98.0515 64.4389 97.8484 C 64.584 97.6454 64.7291 97.4408 64.8742 97.2349 C 65.0193 97.0291 65.1645 96.8219 65.3096 96.6139 C 65.4547 96.4058 65.5998 96.1968 65.7449 95.9872 C 65.89 95.7775 66.0351 95.5673 66.1803 95.3568 C 66.3254 95.1463 66.4705 94.9355 66.6156 94.7249 C 66.7607 94.5142 66.9058 94.3037 67.051 94.0936 C 67.1961 93.8836 67.3412 93.674 67.4863 93.4654 C 67.6314 93.2567 67.7765 93.0489 67.9216 92.8425 C 68.0668 92.636 68.2119 92.4308 68.357 92.2273 C 68.5021 92.0238 68.6472 91.8221 68.7923 91.6225 C 68.9375 91.4228 69.0826 91.2254 69.2277 91.0304 C 69.3728 90.8355 69.5179 90.6431 69.663 90.4537 C 69.8082 90.2643 69.9533 90.0779 70.0984 89.8949 C 70.2435 89.7119 70.3886 89.5322 70.5337 89.3564 C 70.6788 89.1806 70.824 89.0086 70.9691 88.8408 C 71.1142 88.6731 71.2593 88.5095 71.4044 88.3505 C 71.5495 88.1916 71.6947 88.0372 71.8398 87.8878 C 71.9849 87.7385 72.13 87.5941 72.2751 87.455 C 72.4202 87.3159 72.5654 87.1822 72.7105 87.0541 C 72.8556 86.9261 73.0007 86.8037 73.1458 86.6873 C 73.2909 86.5708 73.436 86.4604 73.5812 86.3562 C 73.7263 86.252 73.8714 86.1541 74.0165 86.0627 C 74.1616 85.9713 74.3067 85.8864 74.4519 85.8082 C 74.597 85.73 74.7421 85.6586 74.8872 85.594 C 75.0323 85.5295 75.1774 85.4719 75.3225 85.4214 C 75.4677 85.3708 75.6128 85.3273 75.7579 85.291 C 75.903 85.2547 76.0481 85.2256 76.1932 85.2038 C 76.3384 85.1819 76.4835 85.1673 76.6286 85.16 C 76.7737 85.1527 76.9188 85.1527 77.0639 85.16 C 77.2091 85.1673 77.3542 85.1819 77.4993 85.2038 C 77.6444 85.2256 77.7895 85.2547 77.9346 85.291 C 78.0797 85.3273 78.2249 85.3708 78.37 85.4214 C 78.5151 85.4719 78.6602 85.5295 78.8053 85.594 C 78.9504 85.6586 79.0956 85.73 79.2407 85.8082 C 79.3858 85.8864 79.5309 85.9713 79.676 86.0627 C 79.8211 86.1541 79.9663 86.252 80.1114 86.3562 C 80.2565 86.4604 80.4016 86.5708 80.5467 86.6873 C 80.6918 86.8037 80.8369 86.9261 80.9821 87.0541 C 81.1272 87.1822 81.2723 87.3159 81.4174 87.455 C 81.5625 87.5941 81.7076 87.7385 81.8528 87.8878 C 81.9979 88.0372 82.143 88.1916 82.2881 88.3505 C 82.4332 88.5095 82.5783 88.6731 82.7234 88.8408 C 82.8686 89.0086 83.0137 89.1806 83.1588 89.3564 C 83.3039 89.5322 83.449 89.7119 83.5941 89.8949 C 83.7393 90.0779 83.8844 90.2643 84.0295 90.4537 C 84.1746 90.6431 84.3197 90.8355 84.4648 91.0304 C 84.61 91.2253 84.7551 91.4228 84.9002 91.6225 C 85.0453 91.8221 85.1904 92.0239 85.3355 92.2273 C 85.4806 92.4308 85.6258 92.636 85.7709 92.8425 C 85.916 93.0489 86.0611 93.2567 86.2062 93.4654 C 86.3513 93.674 86.4965 93.8836 86.6416 94.0936 C 86.7867 94.3037 86.9318 94.5142 87.0769 94.7249 C 87.222 94.9355 87.3672 95.1463 87.5123 95.3568 C 87.6574 95.5673 87.8025 95.7775 87.9476 95.9872 C 88.0927 96.1968 88.2378 96.4058 88.383 96.6139 C 88.5281 96.8219 88.6732 97.0291 88.8183 97.2349 C 88.9634 97.4408 89.1085 97.6454 89.2537 97.8484 C 89.3988 98.0515 89.5439 98.253 89.689 98.4527 C 89.8341 98.6524 89.9792 98.8502 90.1243 99.046 C 90.2695 99.2418 90.4146 99.4356 90.5597 99.627 C 90.7048 99.8185 90.8499 100.008 90.995 100.194 C 91.1402 100.381 91.2853 100.565 91.4304 100.747 C 91.5755 100.928 91.7206 101.107 91.8657 101.283 C 92.0109 101.459 92.156 101.632 92.3011 101.803 C 92.4462 101.973 92.5913 102.14 92.7364 102.304 C 92.8815 102.469 93.0267 102.63 93.1718 102.788 C 93.3169 102.946 93.462 103.101 93.6071 103.253 C 93.7522 103.405 93.8974 103.553 94.0425 103.699 C 94.1876 103.844 94.3327 103.986 94.4778 104.125 C 94.6229 104.264 94.7681 104.4 94.9132 104.532 C 95.0583 104.664 95.2034 104.793 95.3485 104.919 C 95.4936 105.045 95.6387 105.168 95.7839 105.287 C 95.929 105.407 96.0741 105.523 96.2192 105.636 C 96.3643 105.749 96.5094 105.859 96.6546 105.965 C 96.7997 106.072 96.9448 106.176 97.0899 106.276 C 97.235 106.377 97.3801 106.474 97.5252 106.569 C 97.6704 106.663 97.8155 106.755 97.9606 106.844 C 98.1057 106.932 98.2508 107.018 98.3959 107.101 C 98.5411 107.184 98.6862 107.264 98.8313 107.342 C 98.9764 107.419 99.1215 107.494 99.2666 107.567 C 99.4118 107.639 99.5569 107.708 99.702 107.776 C 99.8471 107.843 99.9922 107.908 100.137 107.97 C 100.282 108.032 100.428 108.092 100.573 108.15 C 100.718 108.208 100.863 108.263 101.008 108.317 C 101.153 108.37 101.298 108.421 101.443 108.47 C 101.588 108.519 101.734 108.567 101.879 108.612 C 102.024 108.657 102.169 108.701 102.314 108.742 C 102.459 108.784 102.604 108.824 102.749 108.862 C 102.895 108.9 103.04 108.936 103.185 108.971 C 103.33 109.006 103.475 109.039 103.62 109.071 C 103.765 109.103 103.91 109.133 104.055 109.162 C 104.201 109.191 104.346 109.219 104.491 109.245 C 104.636 109.271 104.781 109.296 104.926 109.32 C 105.071 109.344 105.216 109.367 105.361 109.388 C 105.507 109.41 105.652 109.431 105.797 109.45 C 105.942 109.47 106.087 109.488 106.232 109.506 C 106.377 109.523 106.522 109.54 106.668 109.556 C 106.813 109.572 106.958 109.587 107.103 109.601 C 107.248 109.615 107.393 109.629 107.538 109.642 C 107.683 109.654 107.828 109.666 107.974 109.678 C 108.119 109.689 108.264 109.7 108.409 109.71 C 108.554 109.72 108.699 109.73 108.844 109.739 C 108.989 109.748 109.135 109.757 109.28 109.765 C 109.425 109.773 109.57 109.781 109.715 109.788 C 109.86 109.795 110.005 109.802 110.15 109.808 C 110.295 109.814 110.441 109.82 110.586 109.826 C 110.731 109.832 110.876 109.837 111.021 109.842 C 111.166 109.847 111.311 109.851 111.456 109.856 C 111.601 109.86 111.747 109.864 111.892 109.868 C 112.037 109.872 112.182 109.876 112.327 109.879 C 112.472 109.882 112.617 109.885 112.762 109.888 C 112.908 109.891 113.053 109.894 113.198 109.897 C 113.343 109.899 113.488 109.902 113.633 109.904 C 113.778 109.906 113.923 109.908 114.068 109.91 C 114.214 109.912 114.359 109.914 114.504 109.916 C 114.649 109.917 114.794 109.919 114.939 109.921 C 115.084 109.922 115.229 109.923 115.374 109.925 C 115.52 109.926 115.665 109.927 115.81 109.928 C 115.955 109.929 116.1 109.93 116.245 109.931 C 116.39 109.932 116.535 109.933 116.681 109.934 C 116.826 109.935 116.971 109.936 117.116 109.936 C 117.261 109.937 117.406 109.938 117.551 109.938 C 117.696 109.939 117.841 109.939 117.987 109.94 C 118.132 109.94 118.277 109.941 118.422 109.941 C 118.567 109.942 118.712 109.942 118.857 109.943 C 119.002 109.943 119.147 109.943 119.293 109.944 C 119.438 109.944 119.583 109.944 119.728 109.945 C 119.873 109.945 120.018 109.945 120.163 109.945 C 120.308 109.945 120.454 109.946 120.599 109.946 C 120.744 109.946 120.889 109.946 121.034 109.946 C 121.179 109.947 121.324 109.947 121.469 109.947 C 121.614 109.947 121.76 109.947 121.905 109.947 C 122.05 109.947 122.195 109.948 122.34 109.948 C 122.485 109.948 122.63 109.948 122.775 109.948 C 122.92 109.948 123.066 109.948 123.211 109.948 C 123.356 109.948 123.501 109.948 123.646 109.948 C 123.791 109.948 123.936 109.948 124.081 109.948 C 124.227 109.949 124.372 109.949 124.517 109.949 C 124.662 109.949 124.807 109.949 124.952 109.949 C 125.097 109.949 125.242 109.949 125.387 109.949 C 125.533 109.949 125.678 109.949 125.823 109.949 C 125.968 109.949 126.113 109.949 126.258 109.949 C 126.403 109.949 126.548 109.949 126.694 109.949 C 126.839 109.949 126.984 109.949 127.129 109.949 C 127.274 109.949 127.419 109.949 127.564 109.949 C 127.709 109.949 127.854 109.949 128 109.949 C 128.145 109.949 128.29 109.949 128.435 109.949 C 128.58 109.949 128.725 109.949 128.87 109.949 C 129.015 109.949 129.16 109.949 129.306 109.949 C 129.451 109.949 129.596 109.949 129.741 109.949 C 129.886 109.949 130.031 109.949 130.176 109.949 C 130.321 109.949 130.467 109.949 130.612 109.949 C 130.757 109.949 130.902 109.949 131.047 109.949 C 131.192 109.949 131.337 109.949 131.482 109.949 C 131.627 109.949 131.773 109.949 131.918 109.949 C 132.063 109.949 132.208 109.949 132.353 109.949 C 132.498 109.949 132.643 109.949 132.788 109.949 C 132.933 109.949 133.079 109.949 133.224 109.949 C 133.369 109.949 133.514 109.949 133.659 109.949 C 133.804 109.949 133.949 109.949 134.094 109.949 C 134.24 109.949 134.385 109.949 134.53 109.949 C 134.675 109.949 134.82 109.949 134.965 109.949 C 135.11 109.949 135.255 109.949 135.4 109.949 C 135.546 109.949 135.691 109.949 135.836 109.949 C 135.981 109.949 136.126 109.949 136.271 109.949 C 136.416 109.949 136.561 109.949 136.706 109.949 C 136.852 109.949 136.997 109.949 137.142 109.949 C 137.287 109.949 137.432 109.949 137.577 109.949 C 137.722 109.949 137.867 109.949 138.013 109.949 C 138.158 109.949 138.303 109.949 138.448 109.949 C 138.593 109.949 138.738 109.949 138.883 109.949 C 139.028 109.949 139.173 109.949 139.319 109.949 C 139.464 109.949 139.609 109.949 139.754 109.949 C 139.899 109.949 140.044 109.949 140.189 109.949 C 140.334 109.949 140.479 109.949 140.625 109.949 C 140.77 109.949 140.915 109.949 141.06 109.949 C 141.205 109.949 141.35 109.949 141.495 109.949 C 141.64 109.949 141.786 109.949 141.931 109.949"
       title="t (1/sqrt(2 * pi)) * exp(-pow(t, 2)/2)"
       id="path8" />
    <rect
       style="opacity:1;fill:none;stroke:#000000;stroke-width:2;stroke-linecap:butt;stroke-linejoin:miter;stroke-dasharray:none;stroke-opacity:1"
       id="rect8"
       width="63.940807"
       height="62.11393"
       x="43.932823"
       y="47.939392" />
  </g>
</svg>
