<?xml version="1.0" encoding="UTF-8" standalone="no"?>
<!-- Created with Inkscape (http://www.inkscape.org/) -->

<svg
   width="63.999992mm"
   height="63.999996mm"
   viewBox="0 0 63.999994 63.999997"
   version="1.1"
   id="svg1"
   sodipodi:docname="softmax.svg"
   inkscape:version="1.4 (e7c3feb1, 2024-10-09)"
   xmlns:inkscape="http://www.inkscape.org/namespaces/inkscape"
   xmlns:sodipodi="http://sodipodi.sourceforge.net/DTD/sodipodi-0.dtd"
   xmlns="http://www.w3.org/2000/svg"
   xmlns:svg="http://www.w3.org/2000/svg">
  <sodipodi:namedview
     id="namedview1"
     pagecolor="#ffffff"
     bordercolor="#000000"
     borderopacity="0.25"
     inkscape:showpageshadow="2"
     inkscape:pageopacity="0.0"
     inkscape:pagecheckerboard="0"
     inkscape:deskcolor="#d1d1d1"
     inkscape:document-units="mm"
     inkscape:zoom="1.8023607"
     inkscape:cx="41.889506"
     inkscape:cy="124.55886"
     inkscape:window-width="1728"
     inkscape:window-height="972"
     inkscape:window-x="0"
     inkscape:window-y="38"
     inkscape:window-maximized="1"
     inkscape:current-layer="layer1"
     showgrid="true">
    <inkscape:grid
       id="grid9"
       units="mm"
       originx="-2.6458408"
       originy="-1.5874732"
       spacingx="1"
       spacingy="1"
       empcolor="#0099e5"
       empopacity="0.30196078"
       color="#0099e5"
       opacity="0.14901961"
       empspacing="5"
       enabled="true"
       visible="true" />
  </sodipodi:namedview>
  <defs
     id="defs1">
    <inkscape:perspective
       sodipodi:type="inkscape:persp3d"
       inkscape:vp_x="0 : -1.7849115 : 1"
       inkscape:vp_y="0 : 1000.0001 : 0"
       inkscape:vp_z="131.56989 : -1.7849115 : 1"
       inkscape:persp3d-origin="65.785009 : -23.713299 : 1"
       id="perspective2" />
  </defs>
  <g
     inkscape:label="Layer 1"
     inkscape:groupmode="layer"
     id="layer1"
     transform="translate(-14.756134,-80.186953)">
    <ellipse
       style="fill:#ffffff;stroke:#000000;stroke-width:1.737;stroke-dasharray:none"
       id="path1"
       cx="46.75613"
       cy="112.18695"
       rx="31.131716"
       ry="31.131718" />
    <path
       style="fill:#ffffff;stroke:#000000;stroke-width:0.494538;stroke-dasharray:none"
       d="m 46.512514,81.50615 0.487233,62.4954 z"
       id="path2"
       sodipodi:nodetypes="ccc" />
    <path
       style="fill:#ffffff;stroke:#000000;stroke-width:0.430813;stroke-dasharray:none"
       d="M 71.162237,131.75624 H 22.968381 Z"
       id="path2-1"
       sodipodi:nodetypes="ccc" />
    <path
       style="opacity:0.199667;fill:#ffffff;stroke:#000000;stroke-width:3.14548;stroke-dasharray:4.19397, 4.19397"
       d="M 27.957824,186.92173 C 27.171533,185.88409 24.959307,182.4318 23.041767,179.24997 -1.5090503,138.5122 2.328694,86.070236 32.577778,48.942417 52.791802,24.131661 81.921249,9.2959243 114.91309,7.0087363 l 3.9475,-0.2736643 0.41258,55.726432 0.41259,55.726436 -3.4458,7.9015 c -5.31782,12.19417 -12.86993,27.30681 -16.634115,33.28677 -1.873493,2.97631 -3.252568,5.66029 -3.064614,5.9644 0.187948,0.30411 0.07167,0.55293 -0.2584,0.55293 -0.330067,0 -2.762699,2.25847 -5.405844,5.01881 -11.783657,12.30615 -24.27817,16.58362 -51.216009,17.53368 l -10.273533,0.36233 z"
       id="path3"
       transform="matrix(0.26458333,0,0,0.26458333,14.756134,80.186953)" />
    <path
       style="opacity:0.199667;fill:#ffffff;stroke:#000000;stroke-width:3.14548;stroke-dasharray:4.19397, 4.19397"
       d="m 29.649875,187.84951 c 0.931287,-1.12213 -1.945797,-5.50334 -3.369487,-5.13103 -1.322183,0.34575 -3.177995,-2.31604 -2.085499,-2.99125 1.160239,-0.71706 -0.851329,-4.57738 -2.167539,-4.15964 -0.679945,0.21581 -1.264777,-0.16576 -1.898589,-1.23872 -0.829779,-1.4047 -0.833916,-1.60235 -0.04397,-2.10063 0.789886,-0.49825 0.785191,-0.71789 -0.04987,-2.33271 -0.523822,-1.01296 -1.356374,-1.78268 -1.928207,-1.78268 -0.553492,0 -1.287329,-0.61668 -1.630749,-1.3704 -0.506368,-1.11136 -0.462156,-1.46121 0.233894,-1.85073 0.773466,-0.43286 0.77184,-0.68724 -0.01646,-2.57391 -0.62078,-1.48574 -1.122424,-1.99855 -1.727784,-1.76625 -0.571728,0.21939 -1.030133,-0.13849 -1.390093,-1.08526 -0.746255,-1.96279 -0.675752,-2.45 0.354536,-2.45 0.587699,0 0.776006,-0.30124 0.552462,-0.88379 -0.186528,-0.48608 -0.489979,-1.48477 -0.674337,-2.21931 -0.198247,-0.78988 -0.74181,-1.33553 -1.330427,-1.33553 -0.606985,0 -1.221588,-0.64932 -1.575474,-1.66448 -0.470692,-1.35023 -0.428564,-1.66449 0.223138,-1.66449 0.885778,0 0.976952,-0.65791 0.453721,-3.27407 -0.278055,-1.39027 -0.562105,-1.68087 -1.38707,-1.41903 -0.7755673,0.24615 -1.0374107,0.0512 -1.0374107,-0.7724 0,-0.60592 -0.1515484,-1.4966 -0.3367743,-1.97929 -0.2209944,-0.57591 -0.03025,-0.87762 0.5548279,-0.87762 0.5731157,0 0.8916021,-0.47926 0.8916021,-1.34169 0,-1.87546 -0.5470828,-3.09694 -1.3870696,-3.09694 -0.3924366,0 -0.8650696,-0.39492 -1.0502954,-0.87762 -0.5976495,-1.55744 -0.3588754,-3.00617 0.4954675,-3.00617 0.6010635,0 0.8322418,-0.61648 0.8322418,-2.21931 0,-1.84943 -0.1849426,-2.21932 -1.1096558,-2.21932 -0.8982927,0 -1.1096558,-0.36988 -1.1096558,-1.94189 0,-1.35625 0.2509936,-1.9419 0.8322419,-1.9419 0.6010635,0 0.8322418,-0.61648 0.8322418,-2.21931 0,-1.60284 -0.2311783,-2.21931 -0.8322418,-2.21931 -0.5812483,0 -0.8322419,-0.58566 -0.8322419,-1.9419 0,-1.57201 0.2113631,-1.9419 1.1096558,-1.9419 0.9247132,0 1.1096558,-0.36989 1.1096558,-2.21931 0,-1.60284 -0.2311783,-2.21931 -0.8322418,-2.21931 -0.5812483,0 -0.8322419,-0.58566 -0.8322419,-1.9419 0,-1.57201 0.2113631,-1.9419 1.1096558,-1.9419 0.6840437,0 1.1125616,-0.37241 1.1172318,-0.97095 0.00417,-0.53402 0.1581228,-1.53271 0.3421238,-2.21931 0.264912,-0.98851 0.104689,-1.24836 -0.7697429,-1.24836 -0.9540562,0 -1.0525109,-0.24532 -0.7236817,-1.80319 0.2665323,-1.26273 0.6565414,-1.755416 1.3012291,-1.643785 0.6175225,0.106927 1.0323995,-0.349741 1.2601395,-1.387069 0.186737,-0.850563 0.444535,-1.881671 0.572884,-2.291356 0.128349,-0.409685 -0.239553,-0.86855 -0.817561,-1.019702 -1.4637858,-0.382787 -0.737422,-3.159506 0.889107,-3.398842 1.365029,-0.200859 2.368365,-3.86532 1.247929,-4.557789 -0.422051,-0.260842 -0.517535,-1.02798 -0.268868,-2.160151 0.301395,-1.372244 0.606325,-1.685611 1.396259,-1.434896 1.372677,0.435668 2.698023,-3.194377 1.634256,-4.47614 -0.989236,-1.191954 0.154221,-3.577575 1.540958,-3.214939 1.322491,0.34584 2.956541,-3.534581 1.7916,-4.254554 -0.568761,-0.351517 -0.56856,-0.762189 10e-4,-2.137336 0.571205,-1.379013 0.889631,-1.603452 1.677038,-1.182044 1.373448,0.735047 3.36411,-2.791367 2.299711,-4.07389 -0.953846,-1.149315 0.793591,-4.029362 1.891779,-3.117947 1.066474,0.885094 3.432392,-2.57938 2.634254,-3.857403 -0.75701,-1.212167 0.560744,-3.091237 2.167822,-3.091237 1.556215,0 3.623518,-2.73698 2.809397,-3.719466 -0.896234,-1.08158 1.235441,-3.59387 2.299848,-2.71049 1.052593,0.873574 4.003242,-2.482005 3.119178,-3.547237 -0.416906,-0.502341 -0.283623,-1.063894 0.47482,-2.000532 0.848909,-1.048358 1.210688,-1.172466 1.856173,-0.636761 0.647577,0.537441 1.089888,0.364643 2.300156,-0.898604 0.847441,-0.884537 1.361891,-1.919753 1.184172,-2.382881 -0.441,-1.149228 1.768787,-3.088119 2.587024,-2.269882 0.452239,0.452238 1.10668,0.225543 2.455208,-0.850473 1.456425,-1.162109 1.706041,-1.626808 1.200836,-2.235543 -0.853773,-1.028734 1.691695,-3.112428 2.739683,-2.242676 1.105256,0.917281 4.181895,-1.18103 3.823781,-2.607871 -0.387353,-1.543336 2.475683,-3.412787 3.311097,-2.162017 0.767184,1.148616 4.301697,-1.132093 3.868698,-2.496349 -0.421719,-1.328725 2.325539,-2.854848 3.04464,-1.691319 0.760681,1.230808 4.627199,-0.746056 4.18489,-2.139642 -0.448956,-1.414534 2.409573,-2.786356 3.291844,-1.579774 0.87832,1.201171 4.895185,-0.427661 4.457271,-1.807415 -0.44171,-1.391697 2.358484,-2.629783 3.246447,-1.435396 0.923916,1.242744 4.943645,-0.0076 4.501635,-1.400201 -0.436322,-1.374725 2.819037,-2.521262 3.533538,-1.244514 0.736213,1.315537 4.522475,0.516261 4.522475,-0.954689 0,-1.4648224 2.579128,-2.1224121 3.496031,-0.89137 0.998108,1.340066 5.024398,0.613428 4.644778,-0.838257 -0.14813,-0.5664684 0.0194,-1.0333517 0.37226,-1.0375185 0.35287,-0.00417 1.20335,-0.1581228 1.88995,-0.3421243 0.91776,-0.24595 1.24836,-0.097009 1.24836,0.5624039 0,0.6951297 0.5702,0.8969522 2.53412,0.8969522 2.28162,0 2.49902,-0.1105614 2.18192,-1.1096558 -0.30726,-0.9681022 -0.0997,-1.1096558 1.62709,-1.1096558 1.44705,0 1.97929,0.2394641 1.97929,0.8905185 0,0.7043271 0.46402,0.8462672 2.21931,0.678873 1.80605,-0.1722337 2.21931,-0.035071 2.21931,0.7365767 0,0.5215221 -0.51739,1.1124391 -1.14978,1.3131481 -0.72628,0.230515 -1.03282,0.669715 -0.83224,1.192423 0.17465,0.455122 0.31754,1.431257 0.31754,2.169187 0,0.82273 0.32191,1.341692 0.83224,1.341692 0.58125,0 0.83224,0.585652 0.83224,1.941898 0,1.356246 -0.25099,1.941897 -0.83224,1.941897 -0.60106,0 -0.83224,0.616476 -0.83224,2.219312 0,1.602836 0.23118,2.219312 0.83224,2.219312 0.58125,0 0.83224,0.585652 0.83224,1.941897 0,1.356246 -0.25099,1.941898 -0.83224,1.941898 -0.60106,0 -0.83224,0.616475 -0.83224,2.219312 0,1.602836 0.23118,2.219311 0.83224,2.219311 0.58125,0 0.83224,0.585652 0.83224,1.941898 0,1.356246 -0.25099,1.941897 -0.83224,1.941897 -0.60106,0 -0.83224,0.616476 -0.83224,2.219312 0,1.602836 0.23118,2.219312 0.83224,2.219312 0.58125,0 0.83224,0.585652 0.83224,1.941897 0,1.356246 -0.25099,1.941898 -0.83224,1.941898 -0.60106,0 -0.83224,0.616475 -0.83224,2.219311 0,1.602837 0.23118,2.219312 0.83224,2.219312 0.58125,0 0.83224,0.585652 0.83224,1.941898 0,1.356245 -0.25099,1.941897 -0.83224,1.941897 -0.61647,0 -0.83224,0.6473 -0.83224,2.496726 0,1.849426 0.21577,2.496725 0.83224,2.496725 0.55483,0 0.83224,0.554828 0.83224,1.664484 0,1.109656 -0.27741,1.664484 -0.83224,1.664484 -0.61647,0 -0.83224,0.647299 -0.83224,2.496725 0,2.126839 0.1644,2.496726 1.10966,2.496726 0.86306,0 1.10965,0.369887 1.10965,1.664484 0,1.294596 -0.24659,1.664483 -1.10965,1.664483 -0.94526,0 -1.10966,0.369887 -1.10966,2.496726 0,2.126838 0.1644,2.496725 1.10966,2.496725 0.85309,0 1.10965,0.369888 1.10965,1.599775 0,1.133158 -0.32366,1.684413 -1.10965,1.889954 -0.88169,0.230564 -1.10966,0.756791 -1.10966,2.561435 0,1.901368 0.18071,2.271255 1.10966,2.271255 0.89829,0 1.10965,0.369887 1.10965,1.941898 0,1.490545 -0.22908,1.941897 -0.98561,1.941897 -0.81526,0 -0.94903,0.383564 -0.77396,2.219312 0.13612,1.427422 0.48781,2.219311 0.98561,2.219311 0.51464,0 0.77396,0.650636 0.77396,1.941898 0,1.356244 -0.25099,1.941898 -0.83224,1.941898 -0.60106,0 -0.83224,0.616475 -0.83224,2.219311 0,1.602837 0.23118,2.219312 0.83224,2.219312 0.58125,0 0.83224,0.585654 0.83224,1.941896 0,1.35625 -0.25099,1.9419 -0.83224,1.9419 -0.60106,0 -0.83224,0.61647 -0.83224,2.21931 0,1.60284 0.23118,2.21931 0.83224,2.21931 0.58125,0 0.83224,0.58566 0.83224,1.9419 0,1.35624 -0.25099,1.9419 -0.83224,1.9419 -0.60106,0 -0.83224,0.61647 -0.83224,2.21931 0,1.60284 0.23118,2.21931 0.83224,2.21931 0.55483,0 0.83224,0.55483 0.83224,1.66448 0,1.36678 -0.22815,1.66449 -1.27561,1.66449 -1.59627,0 -3.25625,3.69519 -2.00687,4.46736 1.0526,0.65053 -0.25753,3.30023 -1.63176,3.30023 -1.47105,0 -2.71112,2.99553 -1.72964,4.17814 1.04034,1.25354 -0.18841,3.78498 -1.61712,3.33153 -0.81467,-0.25857 -1.21894,0.12065 -1.87073,1.75482 -0.72639,1.82119 -0.72953,2.1592 -0.0249,2.67446 1.20658,0.88227 -0.16524,3.7408 -1.57977,3.29184 -1.36965,-0.43471 -3.372,3.42325 -2.16418,4.16973 0.63272,0.39104 0.64074,0.76298 0.0474,2.19551 -0.57594,1.39044 -0.86529,1.59948 -1.49295,1.07857 -0.61035,-0.50655 -0.9514,-0.41859 -1.57863,0.40714 -1.24204,1.63508 -1.53605,2.97634 -0.83706,3.81857 0.93705,1.12907 -0.30009,3.25451 -1.68372,2.89268 -1.348023,-0.35251 -3.791718,3.40618 -2.666594,4.10155 0.964852,0.59631 -0.469517,3.27893 -1.753212,3.27893 -1.339054,0 -2.970692,1.99626 -2.542876,3.11112 0.510398,1.33008 -1.203599,3.04564 -2.674109,2.67657 -1.614627,-0.40525 -4.109433,2.14787 -3.186033,3.2605 0.487744,0.58769 0.331987,1.03764 -0.692275,1.99989 -0.846052,0.79482 -1.454276,1.02693 -1.6903,0.64503 -0.561519,-0.90856 -1.663147,-0.71839 -3.300816,0.5698 -1.098503,0.86408 -1.331059,1.34915 -0.897362,1.87173 0.435596,0.52486 0.199411,0.95829 -0.922917,1.69367 -1.329484,0.87111 -1.571123,0.88875 -2.037927,0.14871 -0.472741,-0.74945 -0.759582,-0.74924 -2.672073,0.002 -1.671231,0.65649 -2.071179,1.06625 -1.818321,1.86293 0.454631,1.43241 -2.363134,2.55884 -3.286551,1.31383 -0.871402,-1.17488 -4.896145,-0.11327 -4.664743,1.23042 0.107936,0.62678 -0.39916,1.02271 -1.647246,1.28615 -1.343981,0.28369 -1.80319,0.18652 -1.80319,-0.38155 0,-0.50495 -0.672897,-0.76217 -1.993841,-0.76217 -1.497839,0 -2.062971,0.26435 -2.271733,1.06267 -0.377871,1.44497 -2.976929,2.07054 -3.818846,0.91915 -0.377634,-0.51644 -1.461392,-0.87216 -2.657183,-0.87216 -1.649554,0 -2.019439,0.20324 -2.019439,1.10965 0,0.8983 -0.369885,1.10966 -1.941898,1.10966 -1.356245,0 -1.941897,-0.251 -1.941897,-0.83224 0,-0.60107 -0.616476,-0.83225 -2.219312,-0.83225 -1.849426,0 -2.219311,0.18494 -2.219311,1.10966 0,0.89829 -0.369886,1.10966 -1.941898,1.10966 -1.356246,0 -1.941898,-0.251 -1.941898,-0.83225 0,-0.60106 -0.616475,-0.83224 -2.219311,-0.83224 -1.602837,0 -2.219312,0.23118 -2.219312,0.83224 0,0.56208 -0.562376,0.83225 -1.73242,0.83225 -1.437874,0 -1.620668,-0.13466 -1.075137,-0.79198 z"
       id="path4"
       transform="matrix(0.26458333,0,0,0.26458333,14.756134,80.186953)" />
    <path
       style="opacity:0.199667;fill:#ffffff;stroke:#000000;stroke-width:3.14548;stroke-dasharray:4.19397, 4.19397"
       d="m 122.70359,185.22431 c -0.20022,-4.62585 -0.36404,-18.7108 -0.36404,-31.29989 v -22.88924 l 5.09693,-11.56058 c 6.09094,-13.81515 12.52743,-26.611498 16.50186,-32.80728 1.59468,-2.485974 2.74055,-4.777014 2.54637,-5.091199 -0.19417,-0.314187 -0.0543,-0.571248 0.31083,-0.571248 0.36513,0 2.65916,-2.13261 5.09784,-4.739133 11.83574,-12.650318 23.82323,-16.805658 51.17363,-17.738814 5.18764,-0.176995 10.19831,-0.437821 11.13482,-0.579614 1.64309,-0.248773 1.82136,-0.05834 5.08823,5.435478 4.38515,7.374387 6.87778,12.890661 9.8432,21.783292 11.84239,35.512698 5.44998,74.227038 -17.2459,104.446348 l -3.02105,4.02251 h -42.89934 -42.89934 z"
       id="path5"
       transform="matrix(0.26458333,0,0,0.26458333,14.756134,80.186953)" />
    <path
       style="opacity:0.199667;fill:#ffffff;stroke:#000000;stroke-width:3.14548;stroke-dasharray:4.19397, 4.19397"
       d="m 121.78406,84.472548 c -3.6e-4,-14.876323 -0.16615,-38.486727 -0.36842,-52.467564 l -0.36776,-25.4197041 4.94575,0.3462838 c 25.72923,1.8014691 47.3453,9.9786043 66.2791,25.0726943 4.68444,3.734449 12.33864,11.19527 15.94705,15.544159 l 2.37864,2.866747 -2.37864,0.288896 c -1.30824,0.158893 -5.95921,0.429912 -10.33547,0.602266 -32.54537,1.281759 -47.27209,9.498449 -62.5063,34.875053 -1.52578,2.541583 -5.0212,9.274597 -7.76759,14.962251 -2.7464,5.68767 -5.18071,10.34921 -5.40958,10.35899 -0.22886,0.01 -0.41641,-12.153749 -0.41678,-27.030072 z"
       id="path6"
       transform="matrix(0.26458333,0,0,0.26458333,14.756134,80.186953)" />
    <path
       style="opacity:0.199667;fill:#ffffff;stroke:#000000;stroke-width:3.14548;stroke-dasharray:4.19397, 4.19397"
       d="M 112.33475,234.682 C 85.238549,232.61412 59.989097,220.95645 40.344563,201.44414 l -4.787328,-4.75511 1.640359,-0.35175 c 0.902197,-0.19346 19.889664,-0.38128 42.194371,-0.41739 l 40.554015,-0.0656 0.36454,9.24327 c 0.2005,5.0838 0.36455,13.94718 0.36455,19.69639 v 10.45312 l -1.52578,-0.0807 c -0.83918,-0.0444 -3.90572,-0.26234 -6.81454,-0.48433 z"
       id="path7"
       transform="matrix(0.26458333,0,0,0.26458333,14.756134,80.186953)" />
    <path
       style="opacity:0.199667;fill:#ffffff;stroke:#000000;stroke-width:3.14548;stroke-dasharray:4.19397, 4.19397"
       d="m 122.89438,215.47656 v -19.62231 h 41.93666 41.93666 l -2.31167,2.63543 c -5.26022,5.99696 -15.35212,14.32657 -23.41664,19.32753 -16.15422,10.01755 -34.92068,15.92853 -54.12251,17.04729 l -4.0225,0.23437 z"
       id="path8"
       transform="matrix(0.26458333,0,0,0.26458333,14.756134,80.186953)" />
  </g>
  <path
     style="fill:none;stroke:#000000;stroke-width:1.835;stroke-linecap:round;stroke-dasharray:none"
     d="m 7.8975277,50.939156 c 0.01619,-0.141813 0.03236,0.140488 0.04856,-9.31e-4 0.01617,-0.141386 0.03236,0.139842 0.04854,-9.31e-4 0.01619,-0.140957 0.03236,0.139199 0.04856,-9.31e-4 0.01617,-0.140316 0.03236,0.138561 0.04854,-9.3e-4 0.01619,-0.139674 0.03236,0.138131 0.04856,-9.32e-4 0.01617,-0.139247 0.03236,0.137487 0.04854,-9.3e-4 0.01619,-0.138393 0.03236,0.136844 0.04856,-9.31e-4 0.01617,-0.137964 0.03236,0.136206 0.04854,-9.31e-4 0.01619,-0.137106 0.03236,0.135565 0.04856,-9.31e-4 0.01617,-0.136676 0.03236,0.13471 0.04854,-9.31e-4 0.01619,-0.135821 0.03236,0.134068 0.04856,-9.31e-4 0.01617,-0.13518 0.03236,0.133427 0.04854,-9.3e-4 0.01619,-0.134329 0.03236,0.132567 0.04856,-9.31e-4 0.01617,-0.133686 0.03236,0.131925 0.04854,-9.31e-4 0.01619,-0.132828 0.03236,0.131066 0.04856,-9.3e-4 0.01617,-0.132187 0.03236,0.130211 0.04854,-9.32e-4 0.01619,-0.131331 0.03236,0.129358 0.04856,-9.3e-4 0.01617,-0.13069 0.03236,0.128499 0.04854,-0.0013 0.01619,-0.129618 0.03236,0.127648 0.04856,-9.31e-4 0.01617,-0.12876 0.03236,0.12679 0.04854,-9.31e-4 0.01619,-0.128118 0.03236,0.125722 0.04856,-0.0013 0.01617,-0.12705 0.03236,0.124863 0.04854,-9.31e-4 0.01617,-0.126196 0.03236,0.123791 0.04854,-0.0013 0.01619,-0.125341 0.03236,0.122937 0.04856,-0.0013 0.01617,-0.124265 0.03236,0.122084 0.04854,-0.0013 0.01619,-0.123199 0.03236,0.121011 0.04856,-0.0013 0.01617,-0.122345 0.03236,0.119939 0.04853,-0.0013 0.01619,-0.121269 0.03236,0.119091 0.04856,-0.0013 0.01617,-0.120201 0.03236,0.117801 0.04854,-0.0013 0.01619,-0.119133 0.03236,0.116731 0.04856,-0.0013 0.01617,-0.118276 0.03236,0.115664 0.04854,-0.0017 0.01619,-0.116993 0.03236,0.114591 0.04856,-0.0013 0.01617,-0.116133 0.03236,0.113526 0.04854,-0.0017 0.01619,-0.114853 0.03236,0.112453 0.04856,-0.0013 0.01617,-0.113782 0.03236,0.111169 0.04854,-0.0017 0.01619,-0.112714 0.03236,0.110098 0.04856,-0.0017 0.01617,-0.111427 0.03236,0.108814 0.04854,-0.0017 0.01619,-0.110146 0.03236,0.107743 0.04856,-0.0017 0.01617,-0.109076 0.03236,0.106463 0.04854,-0.0017 0.01619,-0.107792 0.03236,0.105178 0.04856,-0.0017 0.01617,-0.106724 0.03236,0.103891 0.04854,-0.0017 0.01619,-0.105437 0.03236,0.10261 0.04856,-0.0017 0.01617,-0.104153 0.03236,0.101326 0.04854,-0.0017 0.01619,-0.102868 0.03236,0.100046 0.04856,-0.0017 0.01617,-0.101585 0.03236,0.09875 0.04854,-0.0017 0.01619,-0.100517 0.03236,0.09725 0.04856,-0.0017 0.01617,-0.09901 0.03236,0.09597 0.04854,-0.0017 0.01619,-0.09774 0.03236,0.09469 0.04856,-0.0017 0.01617,-0.09645 0.03236,0.0932 0.04854,-0.0017 0.01619,-0.09517 0.03236,0.09191 0.04856,-0.0017 0.01617,-0.09388 0.03236,0.09041 0.04854,-0.002 0.01619,-0.09217 0.03236,0.08913 0.04856,-0.0017 0.01617,-0.09088 0.03236,0.08763 0.04854,-0.002 0.01619,-0.08938 0.03236,0.08613 0.04856,-0.0017 0.01617,-0.0881 0.03236,0.08463 0.04854,-0.002 0.01619,-0.0866 0.03236,0.08313 0.04856,-0.002 0.01617,-0.08532 0.03236,0.08163 0.04854,-0.002 0.01619,-0.08382 0.03236,0.08015 0.04856,-0.002 0.01617,-0.08232 0.03236,0.07864 0.04854,-0.002 0.01619,-0.08061 0.03236,0.07736 0.04854,-0.002 0.01619,-0.07932 0.03236,0.07565 0.04856,-0.002 0.01617,-0.07762 0.03236,0.07436 0.04854,-0.002 0.01619,-0.07633 0.03236,0.07265 0.04856,-0.002 0.01617,-0.07484 0.03236,0.07115 0.04854,-0.002 0.01619,-0.07313 0.03236,0.06944 0.04856,-0.002 0.01617,-0.07163 0.03236,0.06794 0.04854,-0.002 0.01619,-0.07012 0.03236,0.06623 0.04856,-0.002 0.01617,-0.06863 0.03236,0.06473 0.04854,-0.0024 0.01619,-0.06692 0.03236,0.06323 0.04856,-0.002 0.01617,-0.06541 0.03236,0.0613 0.04854,-0.0024 0.01619,-0.0637 0.03236,0.05982 0.04856,-0.0024 0.01617,-0.0622 0.03236,0.05832 0.04854,-0.0024 0.01619,-0.0605 0.03236,0.05661 0.04856,-0.0024 0.01617,-0.059 0.03236,0.05489 0.04854,-0.0024 0.01619,-0.05729 0.03236,0.05318 0.04856,-0.0024 0.01617,-0.05558 0.03236,0.05168 0.04854,-0.0024 0.01619,-0.05408 0.03236,0.04975 0.04856,-0.0024 0.01617,-0.05237 0.03236,0.04825 0.04854,-0.0024 0.01619,-0.05065 0.03236,0.04654 0.04856,-0.0024 0.01617,-0.04894 0.03236,0.04483 0.04854,-0.0024 0.01619,-0.04744 0.03236,0.04291 0.04856,-0.0024 0.01617,-0.04572 0.03236,0.0412 0.04854,-0.0028 0.01619,-0.04402 0.03236,0.03948 0.04856,-0.0024 0.01617,-0.04231 0.03236,0.03778 0.04854,-0.0028 0.01619,-0.0406 0.03236,0.03605 0.04856,-0.0028 0.01617,-0.03889 0.03236,0.03434 0.04854,-0.0028 0.01619,-0.03719 0.03236,0.03243 0.04856,-0.0032 0.01617,-0.03547 0.03236,0.03094 0.04854,-0.0028 0.01619,-0.03376 0.03236,0.02899 0.04856,-0.0032 0.01617,-0.03204 0.03236,0.02728 0.04854,-0.0032 0.01619,-0.03009 0.03236,0.02557 0.04856,-0.0032 0.01617,-0.02838 0.03236,0.02366 0.04854,-0.0032 0.01619,-0.0267 0.03236,0.02195 0.04856,-0.0032 0.01617,-0.02499 0.03236,0.02001 0.04854,-0.0032 0.01619,-0.02327 0.03236,0.01829 0.04856,-0.0032 0.01617,-0.02133 0.03236,0.01657 0.04854,-0.0032 0.01619,-0.01983 0.03236,0.01467 0.04856,-0.0035 0.01617,-0.01793 0.03233,0.01295 0.04854,-0.0032 0.01617,-0.01621 0.03236,0.01101 0.04854,-0.0032 0.01619,-0.01449 0.03236,0.0093 0.04856,-0.0035 0.01617,-0.01278 0.03236,0.0074 0.04854,-0.0035 0.01619,-0.01083 0.03236,0.0057 0.04856,-0.0035 0.01617,-0.0091 0.03236,0.0038 0.04854,-0.0035 0.01619,-0.0074 0.03236,0.002 0.04856,-0.0036 0.01617,-0.0055 0.03236,3.26e-4 0.04854,-0.0036 0.01619,-0.0037 0.03236,-0.0018 0.04856,-0.0036 0.01617,-0.0018 0.03236,-0.0033 0.04854,-0.0036 0.01619,-1.57e-4 0.03236,-0.0052 0.04856,-0.0036 0.01617,0.0016 0.03236,-0.0072 0.04854,-0.0039 0.01619,0.0035 0.03236,-0.0089 0.04856,-0.0036 0.01617,0.005 0.03236,-0.01078 0.04854,-0.0039 0.01619,0.0068 0.03236,-0.0125 0.04856,-0.0041 0.01617,0.0086 0.03236,-0.01422 0.04854,-0.0039 0.01619,0.01032 0.03236,-0.01616 0.04856,-0.0041 0.01617,0.01226 0.03236,-0.01788 0.04854,-0.0041 0.01619,0.01398 0.03236,-0.01979 0.04856,-0.0041 0.01617,0.0157 0.03236,-0.0215 0.04854,-0.0041 0.01619,0.01738 0.03236,-0.02344 0.04856,-0.0043 0.01617,0.0191 0.03236,-0.02516 0.04854,-0.0043 0.01619,0.02104 0.03236,-0.02706 0.04856,-0.0043 0.01617,0.02276 0.03236,-0.02878 0.04854,-0.0043 0.01619,0.02447 0.03236,-0.03072 0.04856,-0.0045 0.01617,0.02614 0.03236,-0.03243 0.04854,-0.0045 0.01619,0.02786 0.03236,-0.03434 0.04856,-0.0045 0.01617,0.02958 0.03236,-0.03606 0.04854,-0.0045 0.01619,0.0313 0.03236,-0.03798 0.04856,-0.0047 0.01617,0.03324 0.03236,-0.03969 0.04854,-0.0047 0.01619,0.03492 0.03236,-0.04141 0.04856,-0.0047 0.01617,0.03664 0.03236,-0.04332 0.04854,-0.005 0.01619,0.03836 0.03236,-0.04482 0.04856,-0.005 0.01617,0.04008 0.03236,-0.04653 0.04854,-0.005 0.01619,0.04179 0.03236,-0.04846 0.04856,-0.005 0.01617,0.04351 0.03236,-0.05017 0.04854,-0.0051 0.01619,0.04521 0.03236,-0.05189 0.04856,-0.0051 0.01617,0.04692 0.03236,-0.0536 0.04854,-0.0051 0.01619,0.04864 0.03236,-0.05531 0.04854,-0.0051 0.01619,0.05013 0.03236,-0.05724 0.04856,-0.0054 0.01617,0.05184 0.03236,-0.05895 0.04854,-0.0054 0.01619,0.05356 0.03236,-0.06065 0.04856,-0.0056 0.01617,0.05527 0.03236,-0.06216 0.04854,-0.0054 0.01619,0.05677 0.03236,-0.06408 0.04856,-0.0056 0.01617,0.05848 0.03236,-0.06579 0.04854,-0.0058 0.01619,0.06019 0.03236,-0.06729 0.04856,-0.0056 0.01617,0.06169 0.03236,-0.06922 0.04854,-0.0058 0.01619,0.06318 0.03236,-0.07093 0.04856,-0.006 0.01617,0.0649 0.03236,-0.07243 0.04854,-0.0058 0.01619,0.06639 0.03236,-0.07414 0.04856,-0.006 0.01617,0.06789 0.03236,-0.07586 0.04854,-0.0062 0.01619,0.0696 0.03236,-0.07736 0.04856,-0.006 0.01617,0.0711 0.03236,-0.07906 0.04854,-0.0062 0.01619,0.0726 0.03236,-0.08077 0.04856,-0.0065 0.01617,0.07431 0.03236,-0.08227 0.04854,-0.0065 0.01619,0.07582 0.03236,-0.08377 0.04856,-0.0065 0.01617,0.07731 0.03236,-0.08527 0.04854,-0.0065 0.01619,0.07881 0.03236,-0.08698 0.04856,-0.0066 0.01617,0.0803 0.03236,-0.08848 0.04854,-0.0066 0.01619,0.0818 0.03236,-0.09019 0.04856,-0.0069 0.01617,0.0833 0.03236,-0.09169 0.04854,-0.0069 0.01619,0.08479 0.03236,-0.09319 0.04856,-0.0069 0.01617,0.08608 0.03236,-0.09469 0.04854,-0.0071 0.01619,0.08758 0.03236,-0.09619 0.04856,-0.0071 0.01617,0.08908 0.03236,-0.09767 0.04854,-0.0073 0.01619,0.09058 0.03236,-0.09918 0.04856,-0.0073 0.01617,0.09208 0.03236,-0.100461 0.04854,-0.0073 0.01619,0.09336 0.03236,-0.102174 0.04856,-0.0075 0.01617,0.09464 0.03236,-0.103458 0.04854,-0.0075 0.01619,0.09614 0.03236,-0.104954 0.04856,-0.0075 0.01617,0.0972 0.03236,-0.106451 0.04854,-0.0077 0.01619,0.09849 0.03236,-0.107952 0.04856,-0.0079 0.01617,0.09999 0.03236,-0.109232 0.04854,-0.0079 0.01619,0.10127 0.03236,-0.110516 0.04856,-0.0079 0.01617,0.10255 0.03236,-0.112018 0.04854,-0.0082 0.01619,0.10384 0.03236,-0.113299 0.04856,-0.0082 0.01617,0.105122 0.03234,-0.114585 0.04854,-0.0083 0.01617,0.106402 0.03236,-0.115869 0.04854,-0.0083 0.01619,0.107478 0.03236,-0.117364 0.04856,-0.0086 0.01617,0.108971 0.03236,-0.118436 0.04854,-0.0086 0.01619,0.110047 0.03236,-0.119716 0.04856,-0.0086 0.01617,0.111113 0.03236,-0.121217 0.04854,-0.0088 0.01619,0.11218 0.03236,-0.122501 0.04856,-0.009 0.01617,0.11347 0.03236,-0.123568 0.04854,-0.009 0.01619,0.114536 0.03236,-0.124852 0.04856,-0.009 0.01617,0.115608 0.03236,-0.12614 0.04854,-0.0092 0.01619,0.116677 0.03236,-0.127207 0.04856,-0.0094 0.01617,0.117962 0.03236,-0.128275 0.04854,-0.0094 0.01619,0.11903 0.03236,-0.129562 0.04856,-0.0094 0.01617,0.119883 0.03236,-0.130846 0.04854,-0.0099 0.01619,0.121172 0.03236,-0.131701 0.04856,-0.0097 0.01617,0.122027 0.03236,-0.132984 0.04854,-0.0099 0.01619,0.122882 0.03236,-0.134052 0.04856,-0.01009 0.01617,0.123953 0.03236,-0.135124 0.04854,-0.01009 0.01619,0.124812 0.03236,-0.136195 0.04856,-0.01031 0.01617,0.125878 0.03236,-0.137263 0.04854,-0.01031 0.01619,0.126733 0.03236,-0.138335 0.04856,-0.01054 0.01617,0.127591 0.03236,-0.139404 0.04854,-0.01073 0.01619,0.128659 0.03236,-0.140263 0.04856,-0.01073 0.01617,0.129513 0.03236,-0.141118 0.04854,-0.01095 0.01619,0.130372 0.03236,-0.141972 0.04856,-0.01095 0.01617,0.131227 0.03236,-0.14304 0.04854,-0.01117 0.01619,0.132083 0.03236,-0.143898 0.04856,-0.01117 0.01617,0.132724 0.03236,-0.14497 0.04854,-0.0114 0.01619,0.133369 0.03236,-0.145825 0.04856,-0.01158 0.01617,0.134225 0.03236,-0.146678 0.04854,-0.01158 0.01619,0.134862 0.03236,-0.147538 0.04856,-0.01181 0.01617,0.135721 0.03236,-0.148392 0.04854,-0.01203 0.01619,0.136363 0.03236,-0.149033 0.04856,-0.01203 0.01617,0.137005 0.03236,-0.149889 0.04854,-0.01226 0.01619,0.137864 0.03236,-0.150743 0.04856,-0.01222 0.01617,0.138288 0.03236,-0.151602 0.04854,-0.01267 0.01619,0.139143 0.03236,-0.152244 0.04856,-0.01267 0.01617,0.139789 0.03236,-0.152885 0.04854,-0.01267 0.01617,0.140214 0.03236,-0.153742 0.04854,-0.01289 0.01619,0.140644 0.03236,-0.154383 0.04856,-0.01308 0.01617,0.141281 0.03236,-0.155028 0.04854,-0.0133 0.01619,0.141711 0.03236,-0.15567 0.04856,-0.0133 0.01617,0.14214 0.03236,-0.156309 0.04854,-0.01353 0.01619,0.142566 0.03236,-0.156953 0.04856,-0.01375 0.01617,0.143212 0.03236,-0.157593 0.04854,-0.01394 0.01619,0.143641 0.03236,-0.158021 0.04856,-0.01394 0.01617,0.144066 0.03236,-0.158663 0.04854,-0.01416 0.01619,0.144496 0.03236,-0.159089 0.04856,-0.01439 0.01617,0.144922 0.03236,-0.159521 0.04854,-0.01438 0.01619,0.145137 0.03236,-0.160161 0.04856,-0.01479 0.01617,0.145563 0.03236,-0.16059 0.04854,-0.01479 0.01619,0.145777 0.03236,-0.161018 0.04856,-0.01502 0.01617,0.146205 0.03236,-0.161445 0.04854,-0.01502 0.01619,0.146205 0.03236,-0.161873 0.04856,-0.01547 0.01617,0.146635 0.03236,-0.162298 0.04854,-0.01543 0.01619,0.14685 0.03236,-0.162728 0.04856,-0.01565 0.01617,0.14706 0.03236,-0.163157 0.04854,-0.01588 0.01619,0.147276 0.03236,-0.163371 0.04856,-0.0161 0.01617,0.147489 0.03236,-0.163587 0.04854,-0.0161 0.01619,0.14749 0.03236,-0.164015 0.04856,-0.01651 0.01617,0.147702 0.03236,-0.16423 0.04854,-0.01651 0.01619,0.147702 0.03236,-0.164654 0.04856,-0.01674 0.01617,0.147702 0.03236,-0.164871 0.04854,-0.01696 0.01619,0.147705 0.03236,-0.165084 0.04856,-0.01715 0.01617,0.147705 0.03236,-0.165297 0.04854,-0.01737 0.01619,0.147705 0.03236,-0.165509 0.04856,-0.0176 0.01617,0.147918 0.03236,-0.165513 0.04854,-0.01782 0.01619,0.147919 0.03236,-0.165725 0.04856,-0.01782 0.01617,0.147705 0.03236,-0.165937 0.04854,-0.01823 0.01619,0.147702 0.03236,-0.165943 0.04856,-0.01823 0.01617,0.14749 0.03236,-0.16615 0.04854,-0.01868 0.01619,0.147489 0.03236,-0.165939 0.04856,-0.01864 0.01617,0.147276 0.03236,-0.166155 0.04854,-0.01909 0.01619,0.147276 0.03236,-0.166154 0.04856,-0.01909 0.01617,0.147063 0.03236,-0.166151 0.04854,-0.01931 0.01619,0.146635 0.03236,-0.166155 0.04854,-0.01973 0.01619,0.146635 0.03236,-0.165937 0.04856,-0.01973 0.01617,0.146422 0.03236,-0.166151 0.04854,-0.01995 0.01619,0.145993 0.03236,-0.166151 0.04856,-0.02036 0.01617,0.145779 0.03236,-0.165938 0.04854,-0.02036 0.01619,0.145346 0.03236,-0.165943 0.04856,-0.02081 0.01617,0.145138 0.03236,-0.165725 0.04854,-0.02081 0.01619,0.144708 0.03236,-0.165513 0.04856,-0.02122 0.01617,0.144495 0.03236,-0.165297 0.04854,-0.02144 0.01619,0.144066 0.03236,-0.165083 0.04856,-0.02144 0.01617,0.143424 0.03236,-0.165084 0.04854,-0.02189 0.01619,0.142999 0.03236,-0.164867 0.04856,-0.02208 0.01617,0.14257 0.03236,-0.164653 0.04854,-0.0223 0.01619,0.14214 0.03236,-0.164442 0.04856,-0.02271 0.01617,0.141712 0.03236,-0.164012 0.04854,-0.02275 0.01619,0.141285 0.03236,-0.1638 0.04856,-0.02316 0.01617,0.140856 0.03236,-0.163371 0.04854,-0.02316 0.01619,0.140002 0.03236,-0.163157 0.04856,-0.02357 0.01617,0.139573 0.03236,-0.162941 0.04854,-0.0238 0.01619,0.13893 0.03236,-0.162515 0.04856,-0.02424 0.01617,0.138505 0.03236,-0.161869 0.04854,-0.02421 0.01619,0.137646 0.03236,-0.161661 0.04856,-0.02465 0.01617,0.137004 0.03236,-0.161233 0.04854,-0.02488 0.01619,0.136362 0.03236,-0.160802 0.04856,-0.0251 0.01617,0.135721 0.03236,-0.160374 0.04854,-0.02529 0.01619,0.134868 0.03236,-0.159946 0.04856,-0.02573 0.01617,0.134224 0.03236,-0.159519 0.04854,-0.02596 0.01619,0.133369 0.03236,-0.158877 0.04856,-0.02614 0.01617,0.13251 0.03236,-0.158451 0.04854,-0.0266 0.01619,0.131869 0.03236,-0.157805 0.04856,-0.02678 0.01617,0.131015 0.03236,-0.157376 0.04854,-0.027 0.01619,0.130158 0.03236,-0.156737 0.04856,-0.02741 0.01617,0.129513 0.03236,-0.156096 0.04854,-0.02763 0.01619,0.12866 0.03236,-0.155454 0.04856,-0.02786 0.01617,0.127804 0.03236,-0.154811 0.04854,-0.02808 0.01619,0.126737 0.03236,-0.154383 0.04856,-0.02849 0.01617,0.125662 0.03236,-0.153741 0.04854,-0.02894 0.01619,0.12502 0.03236,-0.152886 0.04856,-0.02894 0.01617,0.123735 0.03236,-0.152457 0.04854,-0.02957 0.01617,0.123094 0.03236,-0.151602 0.04854,-0.02957 0.01619,0.121809 0.03236,-0.150961 0.04856,-0.02998 0.01617,0.120955 0.03236,-0.150319 0.04854,-0.03043 0.01619,0.119884 0.03236,-0.149463 0.04856,-0.03066 0.01617,0.118817 0.03236,-0.148822 0.04854,-0.03084 0.01619,0.117746 0.03236,-0.147963 0.04856,-0.03129 0.01617,0.116677 0.03236,-0.14732 0.04854,-0.0317 0.01619,0.115607 0.03236,-0.146254 0.04856,-0.03193 0.01617,0.114537 0.03236,-0.145607 0.04854,-0.03215 0.01619,0.113252 0.03236,-0.144753 0.04856,-0.03256 0.01617,0.112184 0.03236,-0.143899 0.04854,-0.03301 0.01619,0.111112 0.03236,-0.143043 0.04856,-0.0332 0.01617,0.109829 0.03236,-0.142186 0.04854,-0.03342 0.01619,0.108546 0.03236,-0.141543 0.04856,-0.03405 0.01617,0.107478 0.03236,-0.140471 0.04854,-0.03428 0.01619,0.106407 0.03236,-0.139617 0.04856,-0.0345 0.01617,0.10491 0.03236,-0.138762 0.04854,-0.03491 0.01619,0.103622 0.03236,-0.137909 0.04856,-0.03536 0.01617,0.102555 0.03236,-0.136837 0.04854,-0.03555 0.01619,0.101056 0.03236,-0.135981 0.04856,-0.036 0.01617,0.09977 0.03236,-0.134911 0.04854,-0.03641 0.01619,0.09849 0.03236,-0.134056 0.04856,-0.03686 0.01617,0.09743 0.03236,-0.132984 0.04854,-0.03708 0.01619,0.09592 0.03236,-0.131914 0.04856,-0.03728 0.01617,0.09443 0.03236,-0.13106 0.04854,-0.03792 0.01619,0.09315 0.03236,-0.129987 0.04856,-0.03813 0.01617,0.09165 0.03236,-0.128921 0.04854,-0.03856 0.01619,0.09036 0.03236,-0.128065 0.04856,-0.03899 0.01617,0.08887 0.03236,-0.126995 0.04854,-0.03942 0.01619,0.08758 0.03236,-0.125711 0.04856,-0.03964 0.01617,0.08608 0.03236,-0.124852 0.04854,-0.04006 0.01619,0.08458 0.03236,-0.123785 0.04856,-0.04049 0.01617,0.08308 0.03236,-0.122714 0.04854,-0.04092 0.01619,0.0818 0.03236,-0.121429 0.04856,-0.04135 0.01617,0.0803 0.03236,-0.120359 0.04854,-0.04156 0.01619,0.07881 0.03236,-0.119287 0.04856,-0.04199 0.01617,0.0771 0.03236,-0.118218 0.04854,-0.04241 0.01619,0.0756 0.03236,-0.117149 0.04854,-0.04306 0.01619,0.07431 0.03236,-0.115864 0.04856,-0.04327 0.01617,0.07282 0.03236,-0.114585 0.04854,-0.04349 0.01619,0.0711 0.03236,-0.113726 0.04856,-0.04412 0.01617,0.06939 0.03236,-0.112441 0.04854,-0.04456 0.01619,0.06789 0.03236,-0.111162 0.04856,-0.04498 0.01617,0.06639 0.03236,-0.11009 0.04854,-0.04519 0.01619,0.06468 0.03236,-0.109019 0.04856,-0.04584 0.01617,0.06318 0.03236,-0.107735 0.04854,-0.04604 0.01619,0.06148 0.03236,-0.106668 0.04856,-0.04669 0.01617,0.05998 0.03236,-0.10538 0.04854,-0.0469 0.01619,0.05827 0.03236,-0.10431 0.04856,-0.04755 0.01617,0.05677 0.03236,-0.103025 0.04854,-0.04797 0.01619,0.05505 0.03236,-0.101532 0.04856,-0.04819 0.01617,0.05334 0.03236,-0.100461 0.04854,-0.04883 0.01619,0.05184 0.03236,-0.09918 0.04856,-0.04926 0.01617,0.05013 0.03236,-0.09789 0.04854,-0.04947 0.01619,0.0482 0.03236,-0.09682 0.04856,-0.05011 0.01617,0.0467 0.03236,-0.09554 0.04854,-0.05054 0.01619,0.04499 0.03236,-0.09447 0.04856,-0.05097 0.01617,0.04328 0.03236,-0.09319 0.04854,-0.05161 0.01619,0.04179 0.03236,-0.09169 0.04856,-0.05183 0.01617,0.03987 0.03236,-0.09062 0.04854,-0.05226 0.01619,0.03815 0.03236,-0.08933 0.04856,-0.0529 0.01617,0.03645 0.03236,-0.08805 0.04854,-0.05333 0.01619,0.03473 0.03236,-0.08676 0.04856,-0.05375 0.01617,0.03302 0.03236,-0.08548 0.04854,-0.05418 0.01619,0.0313 0.03236,-0.0842 0.04856,-0.05461 0.01617,0.02958 0.03236,-0.08291 0.04854,-0.05504 0.01619,0.02768 0.03236,-0.08184 0.04856,-0.05568 0.01617,0.02597 0.03236,-0.08034 0.04854,-0.05611 0.01619,0.02425 0.03236,-0.07906 0.04856,-0.05654 0.01617,0.02253 0.03236,-0.07779 0.04854,-0.05697 0.01619,0.02081 0.03236,-0.07671 0.04856,-0.05761 0.01617,0.0191 0.03236,-0.07522 0.04854,-0.05804 0.01619,0.01738 0.03236,-0.07393 0.04856,-0.05846 0.01617,0.01547 0.03236,-0.07265 0.04854,-0.05889 0.01619,0.01376 0.03236,-0.07158 0.04856,-0.05954 0.01617,0.01204 0.03233,-0.07008 0.04854,-0.05996 0.01617,0.01032 0.03236,-0.06879 0.04854,-0.06039 0.01619,0.0085 0.03236,-0.0675 0.04856,-0.06082 0.01617,0.0068 0.03236,-0.06644 0.04854,-0.06145 0.01619,0.005 0.03236,-0.06515 0.04856,-0.06189 0.01617,0.0031 0.03236,-0.06387 0.04854,-0.06253 0.01619,0.0016 0.03236,-0.06237 0.04856,-0.06273 0.01617,-3.17e-4 0.03236,-0.0613 0.04854,-0.06338 0.01619,-0.0021 0.03236,-0.06002 0.04856,-0.06402 0.01617,-0.0037 0.03236,-0.05853 0.04854,-0.06424 0.01619,-0.0057 0.03236,-0.05745 0.04856,-0.06488 0.01617,-0.0076 0.03236,-0.05617 0.04854,-0.06552 0.01619,-0.0091 0.03236,-0.05488 0.04856,-0.06595 0.01617,-0.01106 0.03236,-0.05338 0.04854,-0.06638 0.01619,-0.01278 0.03236,-0.05231 0.04856,-0.0668 0.01617,-0.01472 0.03236,-0.05103 0.04854,-0.06745 0.01619,-0.0164 0.03236,-0.04975 0.04856,-0.06787 0.01617,-0.01812 0.03236,-0.04868 0.04854,-0.06852 0.01619,-0.01983 0.03236,-0.04718 0.04856,-0.06895 0.01617,-0.02155 0.03236,-0.0461 0.04854,-0.06937 0.01619,-0.02349 0.03236,-0.04483 0.04856,-0.07002 0.01617,-0.0252 0.03236,-0.04355 0.04854,-0.07044 0.01619,-0.02688 0.03236,-0.04225 0.04856,-0.07109 0.01617,-0.0286 0.03236,-0.04098 0.04854,-0.0713 0.01619,-0.03054 0.03236,-0.03991 0.04856,-0.07216 0.01617,-0.03204 0.03236,-0.03862 0.04854,-0.07237 0.01619,-0.03394 0.03236,-0.03755 0.04856,-0.07323 0.01617,-0.03547 0.03236,-0.03606 0.04854,-0.07344 0.01619,-0.03739 0.03236,-0.03497 0.04856,-0.07408 0.01617,-0.03889 0.03236,-0.03393 0.04854,-0.07451 0.01619,-0.04081 0.03236,-0.03262 0.04856,-0.07516 0.01617,-0.04231 0.03236,-0.03135 0.04854,-0.07558 0.01619,-0.04403 0.03236,-0.03027 0.04856,-0.07601 0.01617,-0.04594 0.03236,-0.02919 0.04854,-0.07665 0.01619,-0.04744 0.03236,-0.02793 0.04856,-0.07708 0.01617,-0.04916 0.03236,-0.02683 0.04854,-0.07773 0.01619,-0.05087 0.03236,-0.02557 0.04856,-0.07815 0.01617,-0.05258 0.03236,-0.02449 0.04854,-0.07858 0.01619,-0.05429 0.03236,-0.02344 0.04854,-0.07921 0.01619,-0.05579 0.03236,-0.02236 0.04856,-0.07964 0.01617,-0.0575 0.03236,-0.02109 0.04854,-0.08028 0.01619,-0.059 0.03236,-0.02001 0.04856,-0.08071 0.01617,-0.06071 0.03236,-0.01874 0.04854,-0.08114 0.01619,-0.06222 0.03236,-0.01766 0.04856,-0.08157 0.01617,-0.06392 0.03236,-0.0168 0.04854,-0.08221 0.01619,-0.06563 0.03236,-0.01571 0.04856,-0.08285 0.01617,-0.06692 0.03236,-0.01444 0.04854,-0.08307 0.01619,-0.06863 0.03236,-0.01359 0.04856,-0.08371 0.01617,-0.07034 0.03236,-0.0125 0.04854,-0.08414 0.01619,-0.07184 0.03236,-0.01146 0.04856,-0.08478 0.01617,-0.07334 0.03236,-0.01037 0.04854,-0.08521 0.01619,-0.07484 0.03236,-0.0093 0.04856,-0.08564 0.01617,-0.07633 0.03236,-0.0083 0.04854,-0.08607 0.01619,-0.07805 0.03236,-0.0074 0.04856,-0.0867 0.01617,-0.07933 0.03236,-0.0063 0.04854,-0.08713 0.01619,-0.08082 0.03236,-0.0052 0.04856,-0.08756 0.01617,-0.08253 0.03236,-0.0044 0.04854,-0.08821 0.01619,-0.08382 0.03236,-0.0033 0.04856,-0.08842 0.01617,-0.08532 0.03236,-0.0025 0.04854,-0.08906 0.01619,-0.08682 0.03236,-0.0014 0.04856,-0.08949 0.01617,-0.08832 0.03236,-6.35e-4 0.04854,-0.09013 0.01619,-0.0896 0.03236,4.86e-4 0.04856,-0.09035 0.01617,-0.0911 0.03236,0.0012 0.04854,-0.09099 0.01619,-0.09238 0.03236,0.0023 0.04856,-0.09142 0.01617,-0.09367 0.03236,0.0035 0.04854,-0.09185 0.01619,-0.09517 0.03236,0.0044 0.04856,-0.09227 0.01617,-0.09645 0.03236,0.0053 0.04854,-0.0927 0.01619,-0.09774 0.03236,0.0061 0.04856,-0.09313 0.01617,-0.09923 0.03236,0.0068 0.04853,-0.09377 0.01619,-0.100304 0.03236,0.0078 0.04856,-0.09399 0.01617,-0.101801 0.03236,0.0085 0.04854,-0.09442 0.01619,-0.103081 0.03236,0.0093 0.04856,-0.09506 0.01617,-0.104368 0.03236,0.01016 0.04854,-0.09526 0.01619,-0.105649 0.03236,0.01101 0.04856,-0.09591 0.01617,-0.10672 0.03236,0.01186 0.04854,-0.09613 0.01619,-0.108003 0.03236,0.01254 0.04856,-0.09654 0.01617,-0.109292 0.03233,0.01317 0.04853,-0.09719 0.01617,-0.110359 0.03236,0.01422 0.04854,-0.0974 0.01619,-0.111643 0.03236,0.01489 0.04856,-0.09783 0.01617,-0.112713 0.03236,0.01575 0.04854,-0.09826 0.01619,-0.113785 0.03236,0.01638 0.04856,-0.09869 0.01617,-0.11485 0.03236,0.01724 0.04854,-0.0989 0.01619,-0.116137 0.03236,0.01765 0.04856,-0.09954 0.01617,-0.117208 0.03236,0.01851 0.04854,-0.09976 0.01619,-0.118275 0.03236,0.01915 0.04856,-0.100187 0.01617,-0.119347 0.03236,0.01978 0.04861,-0.100405 0.01603,-0.120418 0.03233,0.02045 0.04838,-0.101046 0.0163,-0.121273 0.03233,0.02131 0.04864,-0.101259 0.0163,-0.12234 0.03233,0.02195 0.04864,-0.101472 0.01603,-0.123415 0.03233,0.02236 0.04838,-0.101901 0.0163,-0.124483 0.03233,0.02281 0.04864,-0.10233 0.0163,-0.125337 0.03233,0.02344 0.04863,-0.102757 0.01605,-0.126195 0.03235,0.0243 0.04838,-0.102972 0.0163,-0.12705 0.03233,0.02471 0.04863,-0.103186 0.01603,-0.128121 0.03233,0.02538 0.04864,-0.103613 0.01603,-0.128976 0.03233,0.02579 0.04838,-0.10404 0.0163,-0.129618 0.03235,0.02643 0.04864,-0.104043 0.01605,-0.130687 0.03233,0.02687 0.04864,-0.104682 0.01605,-0.131328 0.03233,0.02751 0.04838,-0.104682 0.0163,-0.132186 0.03233,0.02791 0.04864,-0.105111 0.01603,-0.13304 0.03233,0.02836 0.04838,-0.105328 0.0163,-0.133895 0.0326,0.02877 0.04864,-0.105752 0.0163,-0.134537 0.03233,0.02922 0.04863,-0.105966 0.01602,-0.13518 0.03236,0.02985 0.04838,-0.106182 0.01629,-0.135821 0.03258,0.03026 0.04863,-0.106395 0.01629,-0.136675 0.03236,0.03049 0.04864,-0.106607 0.01606,-0.137322 0.03236,0.03094 0.04838,-0.107038 0.01629,-0.137963 0.03236,0.03135 0.04864,-0.107036 0.01629,-0.138605 0.03236,0.0318 0.04864,-0.107466 0.01602,-0.139244 0.03236,0.03221 0.04838,-0.10768 0.01629,-0.139672 0.03236,0.03262 0.04863,-0.107678 0.01629,-0.140315 0.03236,0.03284 0.04864,-0.108104 0.01606,-0.140745 0.03236,0.03329 0.04838,-0.108108 0.01629,-0.141387 0.03236,0.03348 0.04864,-0.108534 0.01602,-0.141816 0.03236,0.03393 0.04864,-0.108537 0.01602,-0.142455 0.03236,0.03415 0.04838,-0.108747 0.01629,-0.142887 0.03236,0.03433 0.04864,-0.108962 0.01607,-0.143312 0.03236,0.03456 0.04838,-0.109176 0.01629,-0.143742 0.03258,0.03501 0.04864,-0.109179 0.01629,-0.144168 0.03236,0.03501 0.04863,-0.109388 0.01602,-0.144597 0.03236,0.0352 0.04838,-0.109605 0.01629,-0.144814 0.03258,0.03564 0.04863,-0.109605 0.01629,-0.145238 0.03236,0.03564 0.04864,-0.10982 0.01602,-0.145452 0.03236,0.03583 0.04838,-0.109819 0.01629,-0.14588 0.03236,0.03605 0.04864,-0.110033 0.01629,-0.146094 0.03236,0.03628 0.04864,-0.110031 0.01607,-0.146523 0.03236,0.03628 0.04838,-0.110247 0.01629,-0.146522 0.03236,0.0365 0.04864,-0.110247 0.01629,-0.14695 0.03236,0.0365 0.04864,-0.110459 0.01602,-0.146951 0.03236,0.03669 0.04838,-0.110464 0.01629,-0.147163 0.03236,0.03691 0.04863,-0.110459 0.01606,-0.147165 0.03236,0.03691 0.04864,-0.110459 0.01602,-0.147381 0.03236,0.03691 0.04838,-0.110676 0.01629,-0.147377 0.03236,0.03714 0.04864,-0.110676 0.01602,-0.14759 0.03236,0.03714 0.04864,-0.11046 0.01606,-0.147805 0.03236,0.03691 0.04838,-0.110676 0.01629,-0.147801 0.03236,0.03691 0.04864,-0.110672 0.01602,-0.147806 0.03236,0.03691 0.04838,-0.110677 0.01629,-0.147804 0.03258,0.03691 0.04864,-0.110672 0.01629,-0.147804 0.03236,0.03691 0.04863,-0.110675 0.01606,-0.147806 0.03236,0.03691 0.04838,-0.110677 0.01629,-0.147589 0.03258,0.03691 0.04863,-0.110672 0.01629,-0.147592 0.03236,0.03691 0.04864,-0.110462 0.01602,-0.14759 0.03236,0.03669 0.04838,-0.110673 0.01629,-0.147163 0.03236,0.03669 0.04864,-0.110463 0.01629,-0.147159 0.03236,0.0365 0.04864,-0.110459 0.01606,-0.146947 0.03236,0.0365 0.04838,-0.110247 0.01629,-0.146947 0.03236,0.03628 0.04864,-0.110247 0.01629,-0.146735 0.03236,0.03605 0.04863,-0.110246 0.01606,-0.146305 0.03236,0.03583 0.04838,-0.110247 0.01629,-0.146093 0.03236,0.03583 0.04863,-0.109817 0.01602,-0.145881 0.03236,0.03542 0.04864,-0.110034 0.01602,-0.145452 0.03236,0.03542 0.04838,-0.109818 0.01629,-0.145026 0.03236,0.0352 0.04864,-0.109604 0.01606,-0.144812 0.03236,0.03501 0.04838,-0.109606 0.01629,-0.144382 0.03258,0.03478 0.04864,-0.109389 0.01629,-0.143955 0.03236,0.03456 0.04864,-0.109177 0.01602,-0.143741 0.03236,0.03413 0.04838,-0.109177 0.01629,-0.143312 0.03258,0.03392 0.04864,-0.108963 0.01629,-0.142671 0.03236,0.0337 0.04863,-0.108748 0.01606,-0.142244 0.03236,0.03328 0.04838,-0.108535 0.01629,-0.141815 0.03236,0.03306 0.04863,-0.108322 0.01629,-0.141385 0.03236,0.03263 0.04864,-0.10832 0.01602,-0.140745 0.03236,0.03242 0.04838,-0.107894 0.01629,-0.140316 0.03236,0.03178 0.04864,-0.107892 0.01629,-0.139674 0.03236,0.03157 0.04864,-0.107678 0.01602,-0.139033 0.03236,0.03113 0.04838,-0.107252 0.01629,-0.138604 0.03236,0.0307 0.04864,-0.10725 0.01606,-0.137963 0.03236,0.03028 0.04863,-0.106823 0.01606,-0.137321 0.03236,0.02985 0.04838,-0.106823 0.01629,-0.136465 0.03236,0.02964 0.04863,-0.106395 0.01602,-0.135822 0.03236,0.02899 0.04864,-0.10618 0.01602,-0.135181 0.03236,0.02857 0.04838,-0.105968 0.01629,-0.134538 0.03236,0.02814 0.04864,-0.105539 0.01606,-0.133897 0.03236,0.02749 0.04838,-0.105539 0.01629,-0.132826 0.03258,0.02729 0.04864,-0.105111 0.01629,-0.132185 0.03236,0.02664 0.04864,-0.104682 0.01602,-0.131544 0.03236,0.026 0.04837,-0.10447 0.01629,-0.130687 0.03258,0.02536 0.04864,-0.104255 0.01629,-0.129831 0.03236,0.02494 0.04864,-0.10404 0.01602,-0.128762 0.03236,0.02451 0.04838,-0.103614 0.01629,-0.127906 0.03236,0.02387 0.04864,-0.103186 0.01629,-0.127049 0.03236,0.02323 0.04864,-0.10297 0.01606,-0.126193 0.03236,0.02258 0.04838,-0.102544 0.01629,-0.125337 0.03236,0.02194 0.04864,-0.102328 0.01629,-0.124483 0.03236,0.0213 0.04863,-0.102115 0.01602,-0.123264 0.03236,0.02087 0.04838,-0.101518 0.01629,-0.122363 0.03236,0.02012 0.04864,-0.101237 0.01602,-0.12138 0.03236,0.01943 0.04864,-0.100917 0.01607,-0.120352 0.03236,0.01879 0.04838,-0.100531 0.01629,-0.119304 0.03236,0.01811 0.04864,-0.100168 0.01602,-0.118256 0.03236,0.0174 0.04838,-0.09978 0.01629,-0.117186 0.03258,0.01667 0.04864,-0.09941 0.01629,-0.116094 0.03236,0.01597 0.04864,-0.09903 0.01602,-0.114982 0.03236,0.01524 0.04838,-0.09862 0.01629,-0.113869 0.03258,0.01447 0.04863,-0.09826 0.01629,-0.112712 0.03236,0.01374 0.04864,-0.09783 0.01606,-0.111578 0.03236,0.01295 0.04838,-0.09744 0.01629,-0.110401 0.03236,0.01218 0.04864,-0.09705 0.01629,-0.109203 0.03236,0.01138 0.04864,-0.09661 0.01602,-0.108028 0.03236,0.01057 0.04837,-0.09621 0.01629,-0.106807 0.03236,0.0098 0.04863,-0.09581 0.01629,-0.105543 0.03236,0.0089 0.04864,-0.09536 0.01606,-0.104325 0.03236,0.0081 0.04838,-0.09494 0.01629,-0.10304 0.03236,0.0073 0.04863,-0.0945 0.01602,-0.101778 0.03236,0.0064 0.04863,-0.09407 0.01602,-0.100474 0.03236,0.0055 0.04838,-0.09364 0.01629,-0.09914 0.03236,0.0047 0.04863,-0.09317 0.01602,-0.09783 0.03236,0.0037 0.04864,-0.09274 0.01602,-0.09649 0.03236,0.0029 0.04838,-0.09229 0.01629,-0.09513 0.03236,0.0019 0.04863,-0.09182 0.01606,-0.0938 0.03236,9.99e-4 0.04838,-0.09137 0.01629,-0.09241 0.03258,9.1e-5 0.04864,-0.09093 0.01629,-0.09101 0.03236,-8.21e-4 0.04863,-0.09045 0.01602,-0.0896 0.03236,-0.0018 0.04838,-0.08998 0.01629,-0.08819 0.03258,-0.0028 0.04864,-0.08951 0.01629,-0.08675 0.03236,-0.0037 0.04863,-0.08904 0.01606,-0.08532 0.03236,-0.0047 0.04838,-0.08857 0.01629,-0.08386 0.03236,-0.0057 0.04864,-0.0881 0.01629,-0.08239 0.03236,-0.0067 0.04863,-0.08761 0.01602,-0.08091 0.03236,-0.0077 0.04838,-0.08713 0.01629,-0.07942 0.03236,-0.0087 0.04864,-0.08664 0.01629,-0.07792 0.03236,-0.0098 0.04863,-0.08615 0.01602,-0.07642 0.03236,-0.01078 0.04838,-0.08568 0.01629,-0.07488 0.03236,-0.01183 0.04864,-0.08516 0.01606,-0.07337 0.03236,-0.01288 0.04863,-0.08469 0.01606,-0.0718 0.03236,-0.01395 0.04838,-0.08418 0.01629,-0.07023 0.03236,-0.01502 0.04864,-0.08369 0.01602,-0.06867 0.03236,-0.01611 0.04838,-0.08319 0.01629,-0.06711 0.03258,-0.01718 0.04863,-0.0827 0.01629,-0.0655 0.03236,-0.01827 0.04864,-0.08219 0.01607,-0.06392 0.03236,-0.01939 0.04838,-0.0817 0.01629,-0.06231 0.03258,-0.02048 0.04863,-0.08118 0.01629,-0.06068 0.03236,-0.02161 0.04863,-0.08067 0.01602,-0.05909 0.03236,-0.02275 0.04838,-0.08018 0.01629,-0.05746 0.03236,-0.02388 0.04863,-0.07969 0.01629,-0.05579 0.03236,-0.02502 0.04864,-0.07916 0.01602,-0.05416 0.03236,-0.02616 0.04838,-0.07867 0.01629,-0.05251 0.03236,-0.0273 0.04863,-0.07815 0.01629,-0.05085 0.03236,-0.02848 0.04864,-0.07764 0.01606,-0.04917 0.03236,-0.02963 0.04838,-0.07715 0.01629,-0.04748 0.03236,-0.03081 0.04863,-0.07661 0.01602,-0.04581 0.03236,-0.03199 0.04863,-0.07612 0.01602,-0.0441 0.03236,-0.03316 0.04838,-0.07558 0.01629,-0.04242 0.03236,-0.03436 0.04863,-0.07509 0.01607,-0.04071 0.03236,-0.03556 0.04864,-0.07458 0.01606,-0.03899 0.03236,-0.03676 0.04838,-0.07404 0.01629,-0.0373 0.03236,-0.03798 0.04863,-0.07355 0.01602,-0.03557 0.03236,-0.0392 0.04838,-0.07304 0.01629,-0.03385 0.03258,-0.0404 0.04864,-0.07252 0.01629,-0.03212 0.03236,-0.04164 0.04863,-0.07201 0.01606,-0.03039 0.03236,-0.04285 0.04838,-0.07149 0.01629,-0.02863 0.03258,-0.04409 0.04863,-0.07098 0.01629,-0.0269 0.03236,-0.04534 0.04863,-0.07049 0.01606,-0.02515 0.03236,-0.04656 0.04838,-0.06995 0.01629,-0.02339 0.03236,-0.0478 0.04864,-0.06946 0.01629,-0.02164 0.03236,-0.04904 0.04863,-0.06892 0.01602,-0.01988 0.03236,-0.0503 0.04838,-0.06843 0.01629,-0.01813 0.03236,-0.05157 0.04864,-0.06792 0.01629,-0.01637 0.03236,-0.05283 0.04863,-0.06743 0.01606,-0.01459 0.03236,-0.05407 0.04838,-0.06691 0.01629,-0.01282 0.03236,-0.05533 0.04864,-0.0664 0.01602,-0.01104 0.03236,-0.05662 0.04863,-0.06588 0.01602,-0.0093 0.03236,-0.05788 0.04837,-0.06539 0.01629,-0.0075 0.03236,-0.05917 0.04864,-0.0649 0.01606,-0.0057 0.03236,-0.06043 0.04838,-0.06439 0.01629,-0.0039 0.03258,-0.06169 0.04863,-0.06389 0.01629,-0.0021 0.03236,-0.06297 0.04863,-0.06338 0.01602,-4.3e-4 0.03236,-0.06425 0.04838,-0.06289 0.01629,0.0014 0.03258,-0.06552 0.04863,-0.0624 0.01629,0.0032 0.03236,-0.0668 0.04863,-0.0619 0.01602,0.005 0.03236,-0.06808 0.04838,-0.06139 0.01629,0.0067 0.03236,-0.06937 0.04863,-0.06093 0.01629,0.0085 0.03236,-0.07066 0.04864,-0.06041 0.01607,0.01022 0.03236,-0.07194 0.04838,-0.05994 0.01629,0.012 0.03236,-0.07322 0.04863,-0.05945 0.01629,0.01375 0.03236,-0.07451 0.04863,-0.05898 0.01602,0.01555 0.03236,-0.07577 0.04838,-0.05847 0.01629,0.01728 0.03236,-0.07706 0.04863,-0.05799 0.01606,0.01906 0.03236,-0.07833 0.04863,-0.05752 0.01602,0.02082 0.03236,-0.07959 0.04838,-0.05703 0.01629,0.02257 0.03236,-0.08088 0.04864,-0.05656 0.01602,0.02433 0.03236,-0.08216 0.04863,-0.05609 0.01606,0.02608 0.03236,-0.08343 0.04838,-0.05562 0.01629,0.02783 0.03236,-0.08469 0.04863,-0.05512 0.01606,0.02956 0.03236,-0.08597 0.04838,-0.05468 0.01629,0.0313 0.03258,-0.08724 0.04864,-0.0542 0.01629,0.03303 0.03236,-0.0885 0.04863,-0.05373 0.01606,0.03477 0.03236,-0.08976 0.04838,-0.05326 0.01629,0.03648 0.03258,-0.09103 0.04863,-0.05281 0.01629,0.03819 0.03236,-0.09229 0.04864,-0.05236 0.01602,0.03992 0.03236,-0.09351 0.04838,-0.05189 0.01629,0.04162 0.03236,-0.09477 0.04864,-0.05144 0.01629,0.04332 0.03236,-0.09602 0.04863,-0.05099 0.01606,0.045 0.03236,-0.09726 0.04838,-0.05054 0.01629,0.0467 0.03236,-0.09847 0.04864,-0.05009 0.01629,0.0484 0.03236,-0.09969 0.04863,-0.04964 0.01606,0.05007 0.03236,-0.10093 0.04838,-0.04919 0.01629,0.05174 0.03236,-0.10215 0.04863,-0.04876 0.01602,0.05338 0.03236,-0.103348 0.04864,-0.04832 0.01602,0.05503 0.03236,-0.104567 0.04838,-0.04789 0.01629,0.05668 0.03236,-0.105766 0.04864,-0.04746 0.01606,0.05833 0.03236,-0.106964 0.04863,-0.04701 0.01607,0.05994 0.03236,-0.108163 0.04838,-0.0466 0.01629,0.06156 0.03236,-0.109339 0.04864,-0.04617 0.01602,0.06318 0.03236,-0.110517 0.04838,-0.04573 0.01629,0.06476 0.03258,-0.111694 0.04863,-0.04535 0.01629,0.06637 0.03236,-0.112848 0.04863,-0.04489 0.01606,0.06793 0.03236,-0.114026 0.04838,-0.04452 0.01629,0.06954 0.03236,-0.11516 0.04863,-0.04406 0.01629,0.07108 0.03236,-0.116314 0.04863,-0.04368 0.01606,0.07262 0.03236,-0.11745 0.04838,-0.04326 0.01629,0.07419 0.03236,-0.118563 0.04863,-0.04287 0.01629,0.07573 0.03236,-0.119675 0.04864,-0.04244 0.01602,0.07723 0.03236,-0.120788 0.04838,-0.04207 0.01629,0.07875 0.03236,-0.121879 0.04863,-0.04165 0.01606,0.08023 0.03236,-0.122971 0.04863,-0.04126 0.01606,0.08171 0.03236,-0.124063 0.04838,-0.04087 0.01629,0.08319 0.03236,-0.125132 0.04863,-0.04047 0.01602,0.08464 0.03236,-0.126202 0.04863,-0.04011 0.01602,0.0861 0.03236,-0.127251 0.04838,-0.0397 0.01629,0.08754 0.03236,-0.128299 0.04863,-0.03933 0.01606,0.08897 0.03236,-0.129327 0.04838,-0.03895 0.01629,0.09038 0.03258,-0.130331 0.04864,-0.03856 0.01629,0.09178 0.03236,-0.131358 0.04863,-0.0382 0.01602,0.09317 0.03236,-0.132343 0.04838,-0.03781 0.01629,0.09454 0.03258,-0.133348 0.04864,-0.03747 0.01629,0.09591 0.03236,-0.134311 0.04863,-0.03708 0.01602,0.09725 0.03236,-0.135275 0.04838,-0.03672 0.01629,0.09857 0.03236,-0.136238 0.04864,-0.03636 0.01629,0.09988 0.03236,-0.137201 0.04863,-0.03602 0.01606,0.101184 0.03236,-0.138121 0.04838,-0.03565 0.01629,0.102468 0.03236,-0.139042 0.04864,-0.03529 0.01629,0.103731 0.03236,-0.13996 0.04863,-0.03495 0.01602,0.104993 0.03236,-0.140859 0.04838,-0.0346 0.01629,0.106234 0.03236,-0.141737 0.04864,-0.03426 0.01606,0.107475 0.03236,-0.142593 0.04863,-0.03392 0.01606,0.108695 0.03236,-0.143448 0.04838,-0.03357 0.01629,0.109895 0.03236,-0.144282 0.04863,-0.03323 0.01602,0.11107 0.03236,-0.145117 0.04864,-0.03291 0.01602,0.112225 0.03236,-0.145931 0.04838,-0.03257 0.01629,0.113382 0.03236,-0.146744 0.04864,-0.03223 0.01602,0.114494 0.03236,-0.147535 0.04838,-0.03193 0.01629,0.115629 0.03258,-0.148305 0.04863,-0.03158 0.01629,0.116721 0.03236,-0.149076 0.04863,-0.03129 0.01606,0.117811 0.03236,-0.149803 0.04838,-0.03094 0.01629,0.11886 0.03236,-0.150553 0.04863,-0.03064 0.01629,0.119909 0.03236,-0.151259 0.04863,-0.03032 0.01602,0.120935 0.03236,-0.151964 0.04838,-0.03 0.01629,0.121942 0.03236,-0.152672 0.04863,-0.02972 0.01629,0.122947 0.03236,-0.153313 0.04864,-0.0294 0.01606,0.123931 0.03236,-0.153976 0.04838,-0.02908 0.01629,0.124872 0.03236,-0.154641 0.04863,-0.0288 0.01602,0.125835 0.03236,-0.155262 0.04863,-0.0285 0.01602,0.126755 0.03236,-0.155859 0.04838,-0.0282 0.01629,0.127654 0.03236,-0.15646 0.04865,-0.0279 0.01602,0.128531 0.03236,-0.157037 0.04864,-0.02762 0.01602,0.129407 0.03236,-0.157593 0.04838,-0.02733 0.01629,0.130243 0.03236,-0.15815 0.04863,-0.02705 0.01606,0.131077 0.03236,-0.158685 0.04838,-0.02678 0.01629,0.131891 0.03258,-0.159175 0.04863,-0.0265 0.01629,0.132704 0.03236,-0.159669 0.04863,-0.02619 0.01602,0.133452 0.03236,-0.160162 0.04838,-0.02594 0.01629,0.134222 0.03258,-0.160632 0.04864,-0.02566 0.01629,0.134951 0.03236,-0.161081 0.04863,-0.02539 0.01607,0.135677 0.03236,-0.161488 0.04838,-0.02513 0.01629,0.136385 0.03236,-0.161895 0.04863,-0.02485 0.01629,0.137048 0.03236,-0.1623 0.04863,-0.02459 0.01602,0.13769 0.03236,-0.162685 0.04838,-0.02433 0.01629,0.138331 0.03236,-0.163029 0.04863,-0.02408 0.01629,0.138954 0.03236,-0.163369 0.04863,-0.02382 0.01602,0.139551 0.03236,-0.163691 0.04838,-0.02356 0.01629,0.14013 0.03236,-0.164012 0.04864,-0.02333 0.01607,0.140686 0.03236,-0.164268 0.04863,-0.02305 0.01606,0.141221 0.03236,-0.164568 0.04838,-0.02281 0.01629,0.141735 0.03236,-0.164804 0.04864,-0.02258 0.01602,0.142226 0.03236,-0.165039 0.04864,-0.02232 0.01602,0.142697 0.03236,-0.165253 0.04838,-0.02211 0.01629,0.143169 0.03236,-0.165446 0.04863,-0.02185 0.01607,0.143595 0.03236,-0.165617 0.04838,-0.02162 0.01629,0.144025 0.03258,-0.165767 0.04863,-0.02138 0.01629,0.14441 0.03236,-0.165916 0.04864,-0.02114 0.01602,0.144773 0.03236,-0.166046 0.04838,-0.02093 0.01629,0.145137 0.03236,-0.16613 0.04863,-0.0207 0.01629,0.145458 0.03236,-0.166217 0.04865,-0.02046 0.01602,0.145757 0.03236,-0.166303 0.04838,-0.02025 0.01629,0.146037 0.03236,-0.166345 0.04864,-0.02003 0.01629,0.146313 0.03236,-0.166367 0.04863,-0.0198 0.01606,0.146548 0.03236,-0.166389 0.04838,-0.0196 0.01629,0.146785 0.03236,-0.166366 0.04864,-0.01937 0.01602,0.146976 0.03236,-0.166345 0.04863,-0.01918 0.01602,0.147169 0.03236,-0.166281 0.04838,-0.01896 0.01629,0.14734 0.03236,-0.166218 0.04864,-0.01875 0.01606,0.147469 0.03236,-0.166131 0.04863,-0.01853 0.01606,0.147576 0.03236,-0.166025 0.04838,-0.01834 0.01629,0.147683 0.03236,-0.165895 0.04864,-0.01813 0.01602,0.147746 0.03236,-0.165768 0.04837,-0.01795 0.01629,0.147811 0.03258,-0.165574 0.04863,-0.01772 0.01629,0.147833 0.03236,-0.165404 0.04863,-0.01755 0.01607,0.147853 0.03236,-0.16519 0.04838,-0.01735 0.01629,0.147854 0.03258,-0.164954 0.04863,-0.01714 0.01629,0.14781 0.03236,-0.164741 0.04863,-0.01697 0.01606,0.147768 0.03236,-0.164462 0.04838,-0.01678 0.01629,0.147683 0.03236,-0.164185 0.04864,-0.01658 0.01629,0.147598 0.03236,-0.163884 0.04864,-0.01641 0.01602,0.147469 0.03236,-0.163562 0.04838,-0.01622 0.01629,0.147341 0.03236,-0.16322 0.04863,-0.01605 0.01629,0.147191 0.03236,-0.162856 0.04863,-0.01586 0.01606,0.146998 0.03236,-0.162472 0.04838,-0.01568 0.01629,0.146806 0.03236,-0.162086 0.04863,-0.01551 0.01602,0.146591 0.03236,-0.161658 0.04863,-0.01532 0.01602,0.146335 0.03236,-0.16123 0.04838,-0.01517 0.01629,0.146079 0.03236,-0.160781 0.04864,-0.015 0.01606,0.145799 0.03236,-0.160289 0.04863,-0.01481 0.01602,0.145457 0.03236,-0.159818 0.04838,-0.01466 0.01629,0.145138 0.03236,-0.159304 0.04863,-0.01451 0.01602,0.144793 0.03236,-0.158748 0.04838,-0.01431 0.01629,0.144411 0.03258,-0.158212 0.04864,-0.01419 0.01629,0.144046 0.03236,-0.157636 0.04863,-0.01399 0.01602,0.143617 0.03236,-0.157059 0.04837,-0.01387 0.01629,0.143211 0.03236,-0.156438 0.04863,-0.01367 0.01629,0.142741 0.03236,-0.155816 0.04864,-0.01354 0.01607,0.142269 0.03236,-0.155175 0.04838,-0.01339 0.01629,0.141778 0.03236,-0.15449 0.04863,-0.01322 0.01629,0.141264 0.03236,-0.153827 0.04864,-0.01309 0.01602,0.140727 0.03236,-0.153101 0.04838,-0.01292 0.01629,0.140172 0.03236,-0.152393 0.04863,-0.01279 0.01606,0.139595 0.03236,-0.151644 0.04864,-0.01264 0.01606,0.139015 0.03236,-0.150874 0.04838,-0.0125 0.01629,0.138396 0.03236,-0.150104 0.04865,-0.01235 0.01602,0.137752 0.03236,-0.149313 0.04864,-0.01221 0.01602,0.137089 0.03236,-0.1485 0.04838,-0.01207 0.01629,0.136406 0.03236,-0.147664 0.04864,-0.01194 0.01606,0.13572 0.03236,-0.146808 0.04838,-0.01181 0.01629,0.135015 0.03258,-0.14593 0.04863,-0.01166 0.01629,0.134287 0.03236,-0.145055 0.04864,-0.01153 0.01602,0.133538 0.03236,-0.144155 0.04838,-0.01138 0.01629,0.132747 0.03258,-0.143234 0.04863,-0.01127 0.01629,0.131955 0.03236,-0.142294 0.04863,-0.01115 0.01606,0.131163 0.03236,-0.14133 0.04838,-0.011 0.01629,0.130308 0.03236,-0.140367 0.04863,-0.01089 0.01629,0.129474 0.03236,-0.139361 0.04865,-0.01076 0.01602,0.128617 0.03236,-0.138355 0.04838,-0.01063 0.01629,0.127719 0.03236,-0.137329 0.04863,-0.01051 0.01629,0.126821 0.03236,-0.1363 0.04864,-0.0104 0.01606,0.125899 0.03236,-0.135231 0.04838,-0.01027 0.01629,0.124959 0.03236,-0.13414 0.04863,-0.01014 0.01606,0.123994 0.03236,-0.133071 0.04864,-0.01003 0.01602,0.12301 0.03236,-0.131957 0.04838,-0.0099 0.01629,0.122028 0.03236,-0.130823 0.04863,-0.0098 0.01606,0.12102 0.03236,-0.12969 0.04864,-0.0097 0.01606,0.119994 0.03236,-0.128512 0.04838,-0.0095 0.01629,0.118924 0.03236,-0.127357 0.04863,-0.0095 0.01602,0.117876 0.03236,-0.126158 0.04838,-0.0093 0.01629,0.116785 0.03258,-0.124961 0.04863,-0.0092 0.01629,0.115693 0.03236,-0.123742 0.04863,-0.0091 0.01607,0.1146 0.03236,-0.12248 0.04838,-0.009 0.01629,0.113467 0.03236,-0.121238 0.04864,-0.0089 0.01629,0.112312 0.03236,-0.119976 0.04865,-0.0088 0.01602,0.111135 0.03236,-0.118692 0.04838,-0.0087 0.01629,0.10998 0.03236,-0.117386 0.04863,-0.0086 0.01629,0.108781 0.03236,-0.116081 0.04864,-0.0085 0.01606,0.10756 0.03236,-0.114755 0.04838,-0.0084 0.01629,0.10632 0.03236,-0.113427 0.04863,-0.0083 0.01607,0.1051 0.03236,-0.112057 0.04864,-0.0082 0.01602,0.103837 0.03236,-0.11071 0.04838,-0.0081 0.01629,0.102554 0.03236,-0.109318 0.04863,-0.008 0.01607,0.101291 0.03236,-0.107907 0.04863,-0.0079 0.01607,0.09997 0.03236,-0.106515 0.04838,-0.0078 0.01629,0.09866 0.03236,-0.105082 0.04863,-0.0077 0.01602,0.09734 0.03236,-0.10367 0.04837,-0.0076 0.01629,0.09598 0.03258,-0.102214 0.04864,-0.0075 0.01629,0.09464 0.03236,-0.100738 0.04863,-0.0075 0.01606,0.09327 0.03236,-0.09926 0.04838,-0.0074 0.01629,0.09188 0.03258,-0.09778 0.04863,-0.0073 0.01629,0.09049 0.03236,-0.09629 0.04864,-0.0072 0.01602,0.08908 0.03236,-0.09479 0.04838,-0.0071 0.01629,0.08764 0.03236,-0.09327 0.04863,-0.007 0.01629,0.08621 0.03236,-0.09173 0.04864,-0.0069 0.01607,0.08475 0.03236,-0.09019 0.04838,-0.0069 0.01629,0.0833 0.03236,-0.08863 0.04864,-0.0068 0.01629,0.08182 0.03236,-0.08707 0.04863,-0.0067 0.01602,0.08034 0.03236,-0.0855 0.04838,-0.0066 0.01629,0.07887 0.03236,-0.0839 0.04863,-0.0065 0.01602,0.07733 0.03236,-0.08231 0.04864,-0.0065 0.01606,0.07581 0.03236,-0.08071 0.04838,-0.0064 0.01629,0.07429 0.03236,-0.07908 0.04863,-0.0063 0.01606,0.07275 0.03236,-0.07746 0.04864,-0.0062 0.01602,0.07121 0.03236,-0.07584 0.04838,-0.0062 0.01629,0.06965 0.03236,-0.07419 0.04863,-0.0061 0.01606,0.06806 0.03236,-0.07254 0.04838,-0.006 0.01629,0.0665 0.03258,-0.07085 0.04863,-0.0059 0.01629,0.06489 0.03236,-0.0692 0.04863,-0.0059 0.01602,0.06331 0.03236,-0.06751 0.04837,-0.0058 0.01629,0.06169 0.03236,-0.06582 0.04864,-0.0057 0.01629,0.06006 0.03236,-0.06412 0.04863,-0.0057 0.01606,0.05844 0.03236,-0.06241 0.04838,-0.0056 0.01629,0.05681 0.03236,-0.06073 0.04863,-0.0055 0.01629,0.05516 0.03236,-0.059 0.04865,-0.0055 0.01602,0.05351 0.03236,-0.05726 0.04838,-0.0054 0.01629,0.05184 0.03236,-0.05555 0.04863,-0.0053 0.01602,0.05019 0.03236,-0.05379 0.04863,-0.0053 0.01606,0.04849 0.03236,-0.05206 0.04838,-0.0052 0.01629,0.04683 0.03236,-0.0503 0.04864,-0.0051 0.01607,0.04515 0.03236,-0.04855 0.04863,-0.0051 0.01602,0.04345 0.03236,-0.04677 0.04838,-0.005 0.01629,0.04175 0.03236,-0.04501 0.04864,-0.0049 0.01602,0.04002 0.03236,-0.04327 0.04838,-0.0049 0.01629,0.03832 0.03258,-0.04149 0.04864,-0.0048 0.01629,0.03661 0.03236,-0.03969 0.04863,-0.0048 0.01606,0.03488 0.03236,-0.03792 0.04838,-0.0047 0.01629,0.03316 0.03258,-0.03612 0.04863,-0.0047 0.01629,0.03143 0.03236,-0.03432 0.04864,-0.0046 0.01606,0.02969 0.03236,-0.03252 0.04838,-0.0045 0.01629,0.02794 0.03236,-0.03072 0.04863,-0.0045 0.01629,0.02621 0.03236,-0.02892 0.04864,-0.0044 0.01602,0.02446 0.03236,-0.0271 0.04838,-0.0044 0.01629,0.02272 0.03236,-0.02529 0.04864,-0.0043 0.01629,0.02094 0.03236,-0.0235 0.04863,-0.0043 0.01606,0.01919 0.03236,-0.02167 0.04838,-0.0042 0.01629,0.01742 0.03236,-0.01988 0.04863,-0.0042 0.01606,0.01566 0.03236,-0.01806 0.04864,-0.0041 0.01602,0.0139 0.03236,-0.01622 0.04838,-0.0041 0.01629,0.01212 0.03236,-0.01442 0.04863,-0.004 0.01602,0.01035 0.03236,-0.0126 0.04864,-0.004 0.01606,0.0086 0.03236,-0.01076 0.04838,-0.0039 0.01629,0.0068 0.03236,-0.009 0.04864,-0.0039 0.01606,0.0051 0.03236,-0.0071 0.04838,-0.0038 0.01629,0.0033 0.03258,-0.0053 0.04863,-0.0038 0.01629,0.0015 0.03236,-0.0035 0.04863,-0.0037 0.01607,-2.86e-4 0.03236,-0.0017 0.04838,-0.0037 0.01629,-0.002 0.03236,1.76e-4 0.04863,-0.0036 0.01629,-0.0038 0.03236,0.002 0.04863,-0.0036 0.01602,-0.0056 0.03236,0.0038 0.04837,-0.0035 0.01629,-0.0074 0.03236,0.0056 0.04864,-0.0035 0.01629,-0.0091 0.03236,0.0074 0.04863,-0.0035 0.01606,-0.01094 0.03236,0.0092 0.04838,-0.0034 0.01629,-0.01269 0.03236,0.01106 0.04864,-0.0034 0.01606,-0.01448 0.03236,0.01286 0.04863,-0.0033 0.01602,-0.01623 0.03236,0.01466 0.04838,-0.0033 0.01629,-0.018 0.03236,0.01646 0.04864,-0.0032 0.01602,-0.01976 0.03236,0.01826 0.04863,-0.0032 0.01606,-0.02151 0.03236,0.02008 0.04838,-0.0032 0.01629,-0.02327 0.03236,0.02185 0.04864,-0.0031 0.01606,-0.02502 0.03236,0.02365 0.04838,-0.0031 0.01629,-0.02678 0.03258,0.02543 0.04863,-0.003 0.01629,-0.0285 0.03236,0.02719 0.04864,-0.003 0.01602,-0.03026 0.03236,0.02897 0.04838,-0.003 0.01629,-0.03197 0.03258,0.03075 0.04863,-0.0029 0.01629,-0.03373 0.03236,0.03251 0.04864,-0.0029 0.01606,-0.03544 0.03236,0.03426 0.04838,-0.0029 0.01629,-0.03718 0.03236,0.03602 0.04863,-0.0028 0.01629,-0.03887 0.03236,0.03777 0.04864,-0.0028 0.01606,-0.04058 0.03236,0.03951 0.04838,-0.0028 0.01629,-0.04229 0.03236,0.04124 0.04863,-0.0027 0.01629,-0.044 0.03236,0.04295 0.04863,-0.0027 0.01602,-0.04568 0.03236,0.04468 0.04837,-0.0027 0.01629,-0.04736 0.03236,0.04639 0.04863,-0.0026 0.01602,-0.04905 0.03236,0.04808 0.04863,-0.0026 0.01606,-0.0507 0.03236,0.04979 0.04838,-0.0025 0.01629,-0.05239 0.03236,0.05149 0.04863,-0.0025 0.01607,-0.05404 0.03236,0.05316 0.04863,-0.0025 0.01602,-0.05568 0.03236,0.05483 0.04838,-0.0025 0.01629,-0.05733 0.03236,0.0565 0.04864,-0.0025 0.01602,-0.05896 0.03236,0.05817 0.04838,-0.0024 0.01629,-0.06059 0.03258,0.05979 0.04864,-0.0024 0.01629,-0.06218 0.03236,0.06143 0.04863,-0.0023 0.01606,-0.06381 0.03236,0.06304 0.04838,-0.0023 0.01629,-0.06539 0.03236,0.06467 0.04865,-0.0023 0.01629,-0.06698 0.03236,0.06627 0.04863,-0.0022 0.01602,-0.06857 0.03236,0.06788 0.04838,-0.0022 0.01629,-0.07013 0.03236,0.06946 0.04864,-0.0022 0.01629,-0.07169 0.03236,0.07105 0.04863,-0.0022 0.01607,-0.07324 0.03236,0.07261 0.04838,-0.0021 0.01629,-0.07477 0.03236,0.07415 0.04863,-0.0021 0.01602,-0.0763 0.03236,0.07571 0.04863,-0.0021 0.01606,-0.07782 0.03236,0.07723 0.04838,-0.002 0.01629,-0.07933 0.03236,0.07875 0.04864,-0.002 0.01606,-0.0808 0.03236,0.08024 0.04863,-0.002 0.01602,-0.08228 0.03236,0.08174 0.04838,-0.002 0.01629,-0.08375 0.03236,0.08322 0.04864,-0.002 0.01602,-0.08519 0.03236,0.0847 0.04838,-0.0019 0.01629,-0.08665 0.03258,0.08615 0.04863,-0.0019 0.01629,-0.08808 0.03236,0.08761 0.04864,-0.0019 0.01606,-0.08951 0.03236,0.08902 0.04838,-0.0019 0.01629,-0.09091 0.03258,0.09046 0.04863,-0.0018 0.01629,-0.0923 0.03236,0.09187 0.04864,-0.0018 0.01602,-0.09369 0.03236,0.09324 0.04838,-0.0018 0.01629,-0.09506 0.03236,0.09461 0.04863,-0.0017 0.01629,-0.09641 0.03236,0.09598 0.04864,-0.0017 0.01606,-0.09775 0.03236,0.09733 0.04838,-0.0017 0.01629,-0.09905 0.03236,0.09865 0.04863,-0.0017 0.01629,-0.100386 0.03236,0.09998 0.04864,-0.0017 0.01602,-0.101671 0.03236,0.101262 0.04838,-0.0016 0.01629,-0.102954 0.03236,0.102567 0.04863,-0.0016 0.01606,-0.104218 0.03236,0.10383 0.04864,-0.0016 0.01606,-0.105458 0.03236,0.105092 0.04838,-0.0016 0.01629,-0.106699 0.03236,0.106332 0.04863,-0.0016 0.01602,-0.107921 0.03236,0.107574 0.04864,-0.0015 0.01606,-0.109119 0.03236,0.108772 0.04838,-0.0015 0.01629,-0.110296 0.03236,0.10997 0.04863,-0.0015 0.01606,-0.111471 0.03236,0.111148 0.04838,-0.0015 0.01629,-0.112627 0.03258,0.112304 0.04863,-0.0014 0.01629,-0.113783 0.03236,0.113438 0.04863,-0.0014 0.01602,-0.114918 0.03236,0.114572 0.04838,-0.0014 0.01629,-0.11603 0.03258,0.115663 0.04864,-0.0014 0.01629,-0.117099 0.03236,0.116775 0.04863,-0.0014 0.01606,-0.118191 0.03236,0.117846 0.04838,-0.0014 0.01629,-0.11924 0.03236,0.118893 0.04864,-0.0013 0.01629,-0.120267 0.03236,0.119942 0.04863,-0.0013 0.01602,-0.121294 0.03236,0.12097 0.04838,-0.0013 0.01629,-0.122299 0.03236,0.121975 0.04864,-0.0013 0.01606,-0.123306 0.03236,0.122959 0.04864,-0.0013 0.01606,-0.124246 0.03236,0.123923 0.04838,-0.0013 0.01629,-0.12521 0.03236,0.124884 0.04864,-0.0012 0.01602,-0.12615 0.03236,0.125807 0.04863,-0.0012 0.01606,-0.127071 0.03236,0.126727 0.04838,-0.0012 0.01629,-0.127948 0.03236,0.127625 0.04864,-0.0012 0.01607,-0.128846 0.03236,0.128482 0.04838,-0.0012 0.01629,-0.129702 0.03258,0.129359 0.04863,-0.0011 0.01629,-0.130537 0.03236,0.130192 0.04864,-0.0011 0.01602,-0.13135 0.03236,0.131007 0.04838,-0.0011 0.01629,-0.132163 0.03258,0.13182 0.04863,-0.0011 0.01629,-0.132933 0.03236,0.132612 0.04864,-0.0011 0.01606,-0.133705 0.03236,0.133359 0.04838,-0.0011 0.01629,-0.134453 0.03236,0.134087 0.04865,-0.0011 0.01629,-0.135159 0.03236,0.134816 0.04863,-9.99e-4 0.01602,-0.135866 0.03236,0.135521 0.04838,-10e-4 0.01629,-0.136571 0.03236,0.136207 0.04863,-9.99e-4 0.01629,-0.137256 0.03236,0.136847 0.04864,-9.99e-4 0.01607,-0.137899 0.03236,0.137489 0.04838,-0.001 0.01629,-0.138518 0.03236,0.13811 0.04864,-9.99e-4 0.01602,-0.139118 0.03236,0.13873 0.04863,-0.001 0.01602,-0.139718 0.03236,0.139307 0.04838,-9.31e-4 0.01629,-0.140273 0.03236,0.139864 0.04864,-9.31e-4 0.01606,-0.140829 0.03236,0.140399 0.04863,-9.3e-4 0.01606,-0.141344 0.03236,0.140934 0.04838,-9.32e-4"
     title="1 / (1 + exp(-x))"
     id="path1-2" />
</svg>
