<?xml version="1.0" encoding="UTF-8" standalone="no"?>
<!-- Created with Inkscape (http://www.inkscape.org/) -->

<svg
   width="63.999992mm"
   height="63.999996mm"
   viewBox="0 0 63.999994 63.999997"
   version="1.1"
   id="svg1"
   sodipodi:docname="tanh.svg"
   inkscape:version="1.4 (e7c3feb1, 2024-10-09)"
   xmlns:inkscape="http://www.inkscape.org/namespaces/inkscape"
   xmlns:sodipodi="http://sodipodi.sourceforge.net/DTD/sodipodi-0.dtd"
   xmlns="http://www.w3.org/2000/svg"
   xmlns:svg="http://www.w3.org/2000/svg">
  <sodipodi:namedview
     id="namedview1"
     pagecolor="#ffffff"
     bordercolor="#000000"
     borderopacity="0.25"
     inkscape:showpageshadow="2"
     inkscape:pageopacity="0.0"
     inkscape:pagecheckerboard="0"
     inkscape:deskcolor="#d1d1d1"
     inkscape:document-units="mm"
     inkscape:zoom="3.0202457"
     inkscape:cx="213.72433"
     inkscape:cy="103.4684"
     inkscape:window-width="1728"
     inkscape:window-height="972"
     inkscape:window-x="0"
     inkscape:window-y="38"
     inkscape:window-maximized="1"
     inkscape:current-layer="layer1"
     showgrid="true">
    <inkscape:grid
       id="grid9"
       units="mm"
       originx="-2.6458408"
       originy="-1.5874732"
       spacingx="1"
       spacingy="1"
       empcolor="#0099e5"
       empopacity="0.30196078"
       color="#0099e5"
       opacity="0.14901961"
       empspacing="5"
       enabled="true"
       visible="true" />
  </sodipodi:namedview>
  <defs
     id="defs1">
    <inkscape:perspective
       sodipodi:type="inkscape:persp3d"
       inkscape:vp_x="0 : -1.7849115 : 1"
       inkscape:vp_y="0 : 1000.0001 : 0"
       inkscape:vp_z="131.56989 : -1.7849115 : 1"
       inkscape:persp3d-origin="65.785009 : -23.713299 : 1"
       id="perspective2" />
  </defs>
  <g
     inkscape:label="Layer 1"
     inkscape:groupmode="layer"
     id="layer1"
     transform="translate(-14.756134,-80.186953)">
    <ellipse
       style="fill:#ffffff;stroke:#000000;stroke-width:1.73656"
       id="path1"
       cx="46.75613"
       cy="112.18695"
       rx="31.131716"
       ry="31.131718" />
    <path
       style="fill:#ffffff;stroke:#000000;stroke-width:0.493178;stroke-dasharray:none"
       d="M 46.512495,80.850576 46.999766,142.9977 Z"
       id="path2"
       sodipodi:nodetypes="ccc" />
    <path
       style="fill:#ffffff;stroke:#000000;stroke-width:0.485063;stroke-dasharray:none"
       d="M 77.435449,112.18695 H 16.339624 Z"
       id="path2-1"
       sodipodi:nodetypes="ccc" />
  </g>
  <path
     style="fill:none;stroke:#000000;stroke-width:1.80218;stroke-dasharray:none;stroke-dashoffset:0"
     d="m 11.857819,55.765764 c 0.04491,-0.305315 0.08982,0.301418 0.134731,0 0.04491,-0.301493 0.08982,0.297148 0.134731,-7.5e-5 0.04491,-0.297148 0.08982,0.292426 0.134729,0 0.04491,-0.292427 0.08981,0.287108 0.134729,-7.6e-5 0.04491,-0.287107 0.08982,0.281415 0.134731,0 0.04491,-0.281412 0.08982,0.27527 0.13473,0 0.04491,-0.275345 0.08981,0.268604 0.13473,-7.4e-5 0.04491,-0.268677 0.08982,0.261635 0.134732,-7.5e-5 0.04491,-0.261635 0.08981,0.254142 0.13473,0 0.04491,-0.254215 0.08981,0.246275 0.13473,-7.4e-5 0.04491,-0.246274 0.08981,0.238032 0.13473,-7.5e-5 0.04491,-0.238033 0.08981,0.229341 0.134731,0 0.04491,-0.229418 0.08981,0.220276 0.13473,-7.4e-5 0.04491,-0.220428 0.08981,0.210909 0.13473,-7.6e-5 0.04491,-0.21106 0.08981,0.201245 0.13473,-7.6e-5 0.04491,-0.201319 0.08981,0.191207 0.134731,-7.5e-5 0.04491,-0.191278 0.08982,0.180792 0.13473,-7.4e-5 0.04491,-0.180941 0.08982,0.170152 0.13473,-1.49e-4 0.04491,-0.170302 0.08981,0.159287 0.134732,-7.5e-5 0.04491,-0.159363 0.08981,0.148123 0.13473,-1.51e-4 0.04491,-0.1482 0.08981,0.136736 0.134729,-7.4e-5 0.0449,-0.136812 0.08982,0.125048 0.13473,-1.51e-4 0.0449,-0.125196 0.08982,0.11321 0.134731,-1.49e-4 0.0449,-0.11336 0.08982,0.101221 0.134731,-1.5e-4 0.0449,-0.101373 0.08981,0.089 0.134729,-1.49e-4 0.0449,-0.08915 0.08981,0.07665 0.134732,-2.26e-4 0.0449,-0.0768 0.08982,0.06421 0.13473,-1.5e-4 0.0449,-0.06443 0.08981,0.05162 0.134729,-2.23e-4 0.0449,-0.05185 0.08982,0.03903 0.134731,-2.27e-4 0.0449,-0.03925 0.08981,0.02629 0.134731,-2.24e-4 0.0449,-0.02659 0.08981,0.01349 0.13473,-3.01e-4 0.0449,-0.0138 0.08982,7.52e-4 0.134729,-2.98e-4 0.0449,-10e-4 0.08982,-0.01199 0.134731,-3e-4 0.0449,0.01169 0.08981,-0.0248 0.134732,-3.74e-4 0.0449,0.02442 0.08981,-0.03753 0.134729,-3.76e-4 0.0449,0.03716 0.08981,-0.0502 0.13473,-3.73e-4 0.0449,0.04975 0.08982,-0.06279 0.134731,-4.5e-4 0.0449,0.06234 0.08981,-0.0753 0.13473,-4.5e-4 0.0449,0.07478 0.08982,-0.08765 0.13473,-5.25e-4 0.0449,0.08713 0.08982,-0.09996 0.13473,-5.99e-4 0.0449,0.09937 0.08982,-0.111935 0.134724,-5.97e-4 0.04491,0.111411 0.08982,-0.123851 0.134732,-6.76e-4 0.04491,0.123249 0.08982,-0.135537 0.134729,-6.74e-4 0.04491,0.134861 0.08982,-0.147151 0.134731,-7.51e-4 0.04491,0.146327 0.08982,-0.158388 0.13473,-8.97e-4 0.04491,0.157564 0.08982,-0.169328 0.134743,-9e-4 0.04488,0.168504 0.08978,-0.180117 0.134743,-9.74e-4 0.04488,0.179218 0.08978,-0.190606 0.134679,-10e-4 0.04496,0.189556 0.08985,-0.200797 0.134743,-0.0011 0.04496,0.199673 0.08985,-0.210685 0.134743,-0.0013 0.04488,0.209412 0.08985,-0.220202 0.134743,-0.0013 0.04488,0.218853 0.08978,-0.229416 0.134744,-0.0014 0.04489,0.227917 0.08979,-0.238257 0.134679,-0.0016 0.04496,0.236609 0.08985,-0.246725 0.134743,-0.0017 0.04489,0.244926 0.08985,-0.254815 0.134743,-0.0019 0.04488,0.252869 0.08985,-0.262457 0.134742,-0.002 0.04488,0.260435 0.08978,-0.269724 0.134744,-0.0022 0.04488,0.267552 0.08978,-0.276618 0.134679,-0.0024 0.04496,0.274221 0.08985,-0.282988 0.134744,-0.0025 0.04488,0.28044 0.08984,-0.289056 0.134743,-0.0028 0.04488,0.28621 0.08985,-0.294601 0.134743,-0.003 0.04488,0.291528 0.08978,-0.299695 0.134742,-0.0033 0.04489,0.296399 0.08978,-0.30434 0.134679,-0.0035 0.04496,0.300818 0.08985,-0.308537 0.134744,-0.0038 0.04488,0.304717 0.08985,-0.312206 0.134744,-0.0041 0.04488,0.308085 0.08985,-0.315505 0.134743,-0.0045 0.04488,0.310934 0.08978,-0.318275 0.134743,-0.0048 0.04488,0.313407 0.08978,-0.320599 0.13468,-0.0053 0.04496,0.315353 0.08985,-0.322399 0.134742,-0.0057 0.04488,0.316702 0.08985,-0.323747 0.134743,-0.0061 0.04488,0.317526 0.08985,-0.324646 0.134744,-0.0067 0.04488,0.317977 0.08978,-0.325019 0.134742,-0.0072 0.04488,0.317828 0.08978,-0.325018 0.134679,-0.0078 0.04496,0.317153 0.08985,-0.324496 0.134743,-0.0084 0.04488,0.315952 0.08985,-0.323522 0.134743,-0.0092 0.04488,0.314304 0.08985,-0.322097 0.134744,-0.0099 0.04488,0.312132 0.08978,-0.320224 0.134743,-0.01079 0.04488,0.309435 0.08978,-0.317976 0.134679,-0.01177 0.04496,0.306288 0.08985,-0.315278 0.134743,-0.01266 0.04489,0.302542 0.08985,-0.312207 0.134744,-0.0138 0.04488,0.29842 0.08985,-0.308686 0.134742,-0.0149 0.04488,0.293776 0.08978,-0.304791 0.134744,-0.01611 0.04488,0.28868 0.08978,-0.30052 0.134679,-0.01746 0.04496,0.283062 0.08985,-0.295949 0.134744,-0.01888 0.04488,0.276992 0.08984,-0.291078 0.134743,-0.02046 0.04488,0.270549 0.08985,-0.285836 0.134742,-0.02218 0.04489,0.263658 0.08978,-0.280289 0.134743,-0.02398 0.04488,0.256312 0.08978,-0.274523 0.134679,-0.026 0.04496,0.248597 0.08985,-0.268451 0.134743,-0.0281 0.04488,0.240432 0.08985,-0.262233 0.134744,-0.03042 0.04488,0.231889 0.08978,-0.255866 0.134744,-0.03289 0.04488,0.2229 0.08978,-0.249271 0.134743,-0.03559 0.04488,0.213606 0.08978,-0.242603 0.13468,-0.03858 0.04496,0.204093 0.08985,-0.23571 0.134742,-0.04165 0.04488,0.194128 0.08985,-0.22889 0.134742,-0.04504 0.04489,0.183787 0.08978,-0.222074 0.134744,-0.04878 0.04488,0.173298 0.08978,-0.215107 0.134742,-0.05267 0.04488,0.162435 0.08978,-0.208362 0.13468,-0.05701 0.04496,0.151346 0.08985,-0.201545 0.134744,-0.06159 0.04488,0.140033 0.08984,-0.194953 0.134742,-0.06653 0.04488,0.128494 0.08978,-0.188509 0.134744,-0.07185 0.04488,0.116656 0.08978,-0.182365 0.134742,-0.07771 0.04489,0.104742 0.08978,-0.176369 0.13468,-0.08385 0.04496,0.09261 0.08985,-0.170752 0.134743,-0.0905 0.04488,0.08031 0.08985,-0.165506 0.134743,-0.09762 0.04488,0.06788 0.08978,-0.160786 0.134743,-0.105418 0.04488,0.05537 0.08978,-0.156366 0.134744,-0.113658 0.04488,0.04278 0.08978,-0.152546 0.134679,-0.122501 0.04496,0.03012 0.08985,-0.149399 0.134743,-0.132016 0.04488,0.01738 0.08985,-0.146776 0.134743,-0.142205 0.04488,0.0046 0.08978,-0.144903 0.134742,-0.153069 0.04489,-0.0081 0.08978,-0.143855 0.134743,-0.164757 0.04488,-0.0209 0.08978,-0.143555 0.134679,-0.177121 0.04496,-0.03364 0.08985,-0.144153 0.134743,-0.190382 0.04488,-0.0463 0.08985,-0.14565 0.134744,-0.20454 0.04488,-0.05882 0.08978,-0.148201 0.134743,-0.219527 0.04488,-0.07131 0.08978,-0.151721 0.134744,-0.235411 0.04488,-0.0837 0.08978,-0.156366 0.13468,-0.252343 0.04496,-0.0959 0.08985,-0.162135 0.134742,-0.270175 0.04488,-0.108039 0.08985,-0.169103 0.134743,-0.289055 0.04488,-0.119955 0.08978,-0.177196 0.134743,-0.308912 0.04488,-0.131643 0.08978,-0.186635 0.134743,-0.329814 0.04488,-0.143179 0.08978,-0.197275 0.13468,-0.351693 0.04496,-0.154492 0.08985,-0.209187 0.134743,-0.374694 0.04488,-0.165506 0.08985,-0.222373 0.134742,-0.398594 0.04488,-0.176221 0.08978,-0.236759 0.134744,-0.423469 0.04488,-0.186711 0.08978,-0.252343 0.134742,-0.449245 0.04488,-0.196897 0.08978,-0.269125 0.13468,-0.475914 0.04496,-0.206714 0.08985,-0.287033 0.134743,-0.503264 0.04488,-0.216304 0.08985,-0.305913 0.134744,-0.531434 0.04488,-0.225445 0.08978,-0.325694 0.134743,-0.55998 0.04488,-0.234287 0.08978,-0.346372 0.134679,-0.589126 0.04496,-0.242677 0.08985,-0.367651 0.134743,-0.618419 0.04496,-0.250697 0.08985,-0.389455 0.134743,-0.647868 0.04488,-0.258413 0.08985,-0.411631 0.134743,-0.677235 0.04488,-0.265605 0.08978,-0.433959 0.134742,-0.706383 0.04488,-0.272347 0.08978,-0.456135 0.13468,-0.734926 0.04496,-0.278717 0.08985,-0.478015 0.134742,-0.762724 0.04496,-0.284711 0.08985,-0.499516 0.134744,-0.789622 0.04488,-0.290105 0.08985,-0.520122 0.134744,-0.815245 0.04488,-0.295125 0.08979,-0.53975 0.134742,-0.839372 0.04488,-0.299619 0.08979,-0.558182 0.134681,-0.861848 0.04496,-0.303667 0.08985,-0.57504 0.134743,-0.882227 0.04496,-0.307188 0.08985,-0.590326 0.134742,-0.90051 0.04488,-0.31026 0.08985,-0.603586 0.134743,-0.916318 0.04488,-0.312806 0.08978,-0.614749 0.134744,-0.92958 0.04488,-0.314828 0.08978,-0.623665 0.134679,-0.939993 0.04496,-0.316402 0.08985,-0.630259 0.134743,-0.947635 0.04496,-0.317379 0.08985,-0.634304 0.134743,-0.952132 0.04488,-0.317902 0.08985,-0.635878 0.134743,-0.95378 0.04488,-0.317826 0.08978,-0.634754 0.134742,-0.952132 0.04488,-0.317376 0.08978,-0.631232 0.13468,-0.947635 0.04496,-0.316329 0.08985,-0.625164 0.134743,-0.939993 0.04496,-0.314832 0.08985,-0.616774 0.134744,-0.92958 0.04488,-0.312732 0.08985,-0.606059 0.134743,-0.916319 0.04488,-0.310258 0.08978,-0.593321 0.134743,-0.900509 0.04488,-0.307187 0.08978,-0.578561 0.134679,-0.882226 0.04496,-0.303668 0.08985,-0.562229 0.134743,-0.861848 0.04496,-0.299621 0.08985,-0.544248 0.134744,-0.839373 0.04488,-0.295123 0.08985,-0.525139 0.134741,-0.815245 0.04488,-0.290105 0.08978,-0.504911 0.134743,-0.789622 0.04488,-0.28471 0.08978,-0.484008 0.134681,-0.762798 0.04496,-0.278717 0.08985,-0.462505 0.134742,-0.734854 0.04496,-0.272422 0.08985,-0.440776 0.134744,-0.70638 0.04488,-0.265605 0.08985,-0.418824 0.134743,-0.677236 0.04488,-0.258413 0.08978,-0.397171 0.134742,-0.647867 0.04488,-0.25077 0.08978,-0.375741 0.134681,-0.618496 0.04496,-0.242678 0.08985,-0.354764 0.134743,-0.589051 0.04488,-0.234286 0.08985,-0.334536 0.134741,-0.560053 0.04489,-0.225447 0.08985,-0.315055 0.134745,-0.53136 0.04488,-0.216231 0.08978,-0.29655 0.134743,-0.503279 0.04488,-0.206753 0.08978,-0.27901 0.134679,-0.475892 0.04496,-0.196894 0.08985,-0.26255 0.134743,-0.449259 0.04488,-0.186718 0.08985,-0.247234 0.134743,-0.42347 0.04488,-0.176243 0.08985,-0.233117 0.134743,-0.398594 0.04488,-0.165476 0.08978,-0.220217 0.134742,-0.374664 0.04488,-0.154455 0.08978,-0.208565 0.13468,-0.351737 0.04496,-0.14318 0.08985,-0.198151 0.134743,-0.329822 0.04488,-0.131664 0.08985,-0.188957 0.134744,-0.308911 0.04488,-0.119952 0.08985,-0.181002 0.134743,-0.289041 0.04488,-0.108047 0.08978,-0.174228 0.134743,-0.270182 0.04488,-0.09595 0.08978,-0.168601 0.134679,-0.252314 0.04496,-0.08372 0.08985,-0.164097 0.134744,-0.235441 0.04488,-0.07134 0.08985,-0.160651 0.134743,-0.21951 0.04488,-0.05886 0.08985,-0.158232 0.134742,-0.204506 0.04488,-0.04627 0.08978,-0.156792 0.134743,-0.190403 0.04488,-0.03361 0.08978,-0.156253 0.13468,-0.17715 0.04496,-0.0209 0.08985,-0.156575 0.134742,-0.164727 0.04488,-0.0081 0.08985,-0.1577 0.134744,-0.153092 0.04488,0.0046 0.08985,-0.1595579 0.134743,-0.142198 0.04488,0.01736 0.08979,-0.1620975 0.134742,-0.1320157 0.04488,0.030085 0.08978,-0.165274 0.134681,-0.1225145 0.04496,0.042758 0.08985,-0.1690129 0.134743,-0.1136445 0.04488,0.055359 0.08985,-0.1732615 0.134742,-0.1053808 0.04488,0.067883 0.08985,-0.1779738 0.134744,-0.097685 0.04488,0.080295 0.08978,-0.1830762 0.134743,-0.090502 0.04488,0.092566 0.08978,-0.188546 0.134679,-0.083845 0.04496,0.1046978 0.08985,-0.1943074 0.134743,-0.077649 0.04488,0.116664 0.08985,-0.2003241 0.134743,-0.071885 0.04488,0.1284343 0.08985,-0.206543 0.134743,-0.066534 0.04488,0.1400022 0.08978,-0.2129189 0.134743,-0.061575 0.04488,0.1513385 0.08978,-0.2194086 0.134679,-0.056969 0.04496,0.1624348 0.08985,-0.2259745 0.134743,-0.052705 0.04488,0.1732767 0.08985,-0.2325706 0.134743,-0.048742 0.04488,0.1838257 0.08985,-0.2391657 0.134744,-0.045071 0.04488,0.19409 0.08978,-0.2457126 0.134743,-0.041671 0.04488,0.2040347 0.08978,-0.2521809 0.134679,-0.038522 0.04496,0.2136613 0.08985,-0.2585418 0.134744,-0.035606 0.04488,0.2229338 0.08985,-0.2647588 0.134742,-0.03291 0.04488,0.2318466 0.08978,-0.2708039 0.134743,-0.030416 0.04488,0.2403879 0.08978,-0.2766496 0.134744,-0.028103 0.04488,0.2485451 0.08978,-0.2822672 0.134679,-0.025961 0.04496,0.2563031 0.08985,-0.2876323 0.134742,-0.023988 0.04488,0.2636413 0.08985,-0.2927218 0.134744,-0.022158 0.04488,0.2705636 0.08978,-0.2975133 0.134743,-0.020468 0.04488,0.2770449 0.08978,-0.3019864 0.134743,-0.01891 0.04488,0.283082 0.08978,-0.3061211 0.134681,-0.017461 0.04496,0.2886623 0.08985,-0.309901 0.134742,-0.016124 0.04488,0.2937768 0.08985,-0.3133098 0.134743,-0.014896 0.04488,0.2984198 0.08978,-0.3163302 0.134743,-0.013749 0.04488,0.3025798 0.08978,-0.3189523 0.134743,-0.012693 0.04488,0.3062549 0.08978,-0.3211592 0.134679,-0.011727 0.04496,0.3094356 0.08985,-0.3229433 0.134743,-0.010824 0.04488,0.3121179 0.08985,-0.3242925 0.134743,-0.00996 0.04488,0.3142985 0.08978,-0.3251997 0.134743,-0.00925 0.04488,0.315972 0.08978,-0.3256553 0.134743,-0.00855 0.04488,0.3171371 0.08978,-0.3256551 0.13468,-0.00784 0.04496,0.3177916 0.08985,-0.3251937 0.134743,-0.00723 0.04488,0.3179336 0.08985,-0.3242652 0.134742,-0.00673 0.04488,0.3175646 0.08978,-0.3228691 0.134744,-0.00623 0.04488,0.3166833 0.08978,-0.3210023 0.134743,-0.00573 0.04488,0.3152914 0.08978,-0.3186646 0.134679,-0.00523 0.04496,0.3133934 0.08985,-0.3158556 0.134744,-0.00483 0.04489,0.3109895 0.08985,-0.3125764 0.134743,-0.00453 0.04488,0.3080835 0.08978,-0.308831 0.134742,-0.00413 0.04488,0.3046849 0.08978,-0.3046195 0.134745,-0.00382 0.04488,0.3007935 0.08978,-0.2999495 0.134678,-0.00352 0.04496,0.2964171 0.08985,-0.2948239 0.134743,-0.00322 0.04488,0.291564 0.08985,-0.2892505 0.134743,-0.00301 0.04488,0.2862412 0.08978,-0.2832348 0.134744,-0.00281 0.04488,0.2804567 0.08978,-0.2767855 0.134742,-0.0025 0.04488,0.2742217 0.08978,-0.2699106 0.13468,-0.0024 0.04496,0.2675451 0.08985,-0.2626215 0.134743,-0.0022 0.04488,0.2604368 0.08985,-0.254926 0.134743,-0.002 0.04488,0.2529093 0.08978,-0.246835 0.134744,-0.0019 0.04488,0.2449754 0.08978,-0.2383623 0.134679,-0.0017 0.04496,0.2366462 0.08985,-0.22952 0.134743,-0.0016 0.04496,0.2279358 0.08985,-0.2203209 0.134743,-0.0015 0.04488,0.2188583 0.08985,-0.2107776 0.134743,-0.0013 0.04488,0.2094287 0.08978,-0.2009065 0.134743,-0.0012 0.04488,0.1996613 0.08978,-0.1907226 0.134678,-0.0011 0.04496,0.1895728 0.08985,-0.1802399 0.134744,-0.0011 0.04496,0.1791788 0.08985,-0.1694746 0.134743,-9.798e-4 0.04488,0.1684961 0.08985,-0.1584448 0.134743,-9.031e-4 0.04488,0.1575425 0.08978,-0.1471685 0.134744,-8.338e-4 0.04488,0.1463346 0.08979,-0.135661 0.13468,-7.694e-4 0.04496,0.1348903 0.08985,-0.1239412 0.134742,-7.102e-4 0.04496,0.12323 0.08985,-0.1120282 0.134744,-6.558e-4 0.04488,0.1113714 0.08985,-0.099938 0.134742,-6.055e-4 0.04488,0.099335 0.08978,-0.087697 0.134743,-5.582e-4 0.04488,0.087133 0.08978,-0.075306 0.134679,-5.15e-4 0.04496,0.074793 0.08985,-0.062814 0.134744,-4.758e-4 0.04496,0.06234 0.08985,-0.050219 0.134743,-4.395e-4 0.04488,0.049778 0.08985,-0.037548 0.134744,-4.044e-4 0.04488,0.037135 0.08978,-0.024814 0.134742,-3.742e-4 0.04488,0.024442 0.08978,-0.012039 0.134679,-3.45e-4 0.04496,0.011697 0.08985,7.403e-4 0.134743,-3.188e-4 0.04496,-0.0011 0.08985,0.013518 0.134744,-2.936e-4 0.04488,-0.01382 0.08985,0.026282 0.134743,-2.717e-4 0.04488,-0.026543 0.08978,0.038987 0.134743,-2.494e-4 0.04488,-0.039237 0.08978,0.051639 0.13468,-2.314e-4 0.04496,-0.051869 0.08985,0.064201 0.134743,-2.131e-4 0.04496,-0.064413 0.08985,0.076654 0.134743,-1.962e-4 0.04488,-0.076855 0.08985,0.088985 0.134742,-1.82e-4 0.04489,-0.089165 0.08978,0.1011744 0.134743,-1.67e-4 0.04488,-0.1013436 0.08978,0.113197 0.134679,-1.558e-4 0.04496,-0.1133521 0.08985,0.1250373 0.134744,-1.42e-4 0.04496,-0.1251803 0.08985,0.1366738 0.134742,-1.317e-4 0.04488,-0.1368056 0.08985,0.1480899 0.134743,-1.217e-4 0.04488,-0.1482116 0.08979,0.1592655 0.134745,-1.126e-4 0.04488,-0.1593773 0.08978,0.1701856 0.134679,-1.026e-4 0.04496,-0.1702883 0.08985,0.1808283 0.134743,-9.66e-5 0.04496,-0.180924 0.08985,0.1911812 0.134743,-8.76e-5 0.04488,-0.1912686 0.08985,0.2012234 0.134743,-8.14e-5 0.04488,-0.2013047 0.08978,0.2109416 0.134742,-7.54e-5 0.04488,-0.211017 0.08978,0.2203208 0.13468,-6.94e-5 0.04496,-0.2203892 0.08985,0.229343 0.134743,-6.34e-5 0.04488,-0.2294073 0.08985,0.2379961 0.134744,-5.93e-5 0.04488,-0.2380544 0.08984,0.2462659 0.134743,-5.44e-5 0.04488,-0.2463192 0.08978,0.2541376 0.134742,-5.02e-5 0.04489,-0.2541877 0.08978,0.2615996 0.134679,-4.64e-5 0.04496,-0.2616459 0.08985,0.2686404 0.134743,-4.32e-5 0.04488,-0.2686827 0.08985,0.2752487 0.134743,-3.92e-5 0.04488,-0.2752879 0.08985,0.2814122 0.134744,-3.63e-5 0.04488,-0.2814483 0.08978,0.2871224 0.134744,-3.41e-5 0.04488,-0.2871564 0.08978,0.2923718 0.13468,-3.01e-5 0.04496,-0.292403 0.08985,0.2971473 0.134742,-2.92e-5 0.04488,-0.2971765 0.08985,0.3014462 0.134743,-2.61e-5 0.04488,-0.3014724 0.08985,0.3052582 0.134743,-2.43e-5"
     title="tanh(x)"
     id="path9"
     inkscape:label="path9" />
</svg>
